<?xml version="1.0" encoding="utf-8"?>
<!-- Generator: Adobe Illustrator 22.0.1, SVG Export Plug-In . SVG Version: 6.00 Build 0)  -->
<svg version="1.1" id="Layer_1" xmlns="http://www.w3.org/2000/svg" xmlns:xlink="http://www.w3.org/1999/xlink" x="0px" y="0px"
	 viewBox="0 0 507.3 207.8" style="enable-background:new 0 0 507.3 207.8;" xml:space="preserve">
<style type="text/css">
	.st0{clip-path:url(#SVGID_2_);}
	.st1{fill:#208842;}
	.st2{fill:#2B8D4B;}
	.st3{fill:#B1DC9F;}
	.st4{fill:#208742;}
	.st5{fill:#3EAE49;}
	.st6{fill:#6DBD4B;}
	.st7{fill:#3EAF49;}
	.st8{fill:#3FAF49;}
	.st9{fill:#3FAF4A;}
	.st10{fill:#41B04C;}
	.st11{fill:#6FBE4D;}
	.st12{fill:#6EBE4D;}
	.st13{fill:#40AF4B;}
	.st14{fill:#6EBE4C;}
	.st15{fill:#48B252;}
	.st16{fill:#75C155;}
	.st17{fill:#2D8F4D;}
	.st18{fill:#74C154;}
	.st19{fill:#74C053;}
	.st20{fill:#76C257;}
	.st21{fill:#47B251;}
	.st22{fill:#49B354;}
	.st23{fill:#48B352;}
	.st24{fill:#47B252;}
	.st25{fill:#72C052;}
	.st26{fill:#73C053;}
	.st27{fill:#45B150;}
	.st28{fill:#73C052;}
	.st29{fill:#46B251;}
	.st30{fill:#49B353;}
	.st31{fill:#44B14E;}
	.st32{fill:#71BF51;}
	.st33{fill:#45B14F;}
	.st34{fill:#72C051;}
	.st35{fill:#43B14E;}
	.st36{fill:#46B250;}
	.st37{fill:#71BF50;}
	.st38{fill:#70BF4F;}
</style>
<g>
	<defs>
		<polyline id="SVGID_1_" points="501.9,206.8 1,206.8 1,-220.1 501.9,-220.1 		"/>
	</defs>
	<clipPath id="SVGID_2_">
		<use xlink:href="#SVGID_1_"  style="overflow:visible;"/>
	</clipPath>
	<g class="st0">
		<path class="st1" d="M502.9,56.8c-1.6,0.4-1.6,1.9-2.2,3c-2.7,4.9-8.5,7.2-13.6,5.5c-5-1.7-8.1-6.6-7.6-12.1
			c0.5-5.2,4.4-9.1,9.7-9.7c5.7-0.6,10.3,2.4,12.3,7.8c0.4,1.1-0.4,2.8,1.3,3.4C502.9,55.5,502.9,56.2,502.9,56.8z"/>
		<path class="st2" d="M502.9,25.8c-0.8,0.8-1.4,1.8-2.3,2.4c-1.6,1-3.3,0.6-4.4-1c-0.9-1.3-1-2.9,0-4.2c1.1-1.4,2.9-1.8,4.4-0.8
			c0.9,0.6,1.5,1.7,2.2,2.6C502.9,25.2,502.9,25.5,502.9,25.8z"/>
		<path class="st3" d="M3,72.9l-0.5-0.1l-0.5,0c0-1.7,0-3.3,0-5c0.3,0,0.6,0,0.9-0.1C4.5,69.4,4.4,71.1,3,72.9z"/>
		<path class="st4" d="M308.2,67c-2,0.7-2.4-1-3.1-2.2"/>
		<path class="st5" d="M229.8,22.8c4,0.3,7.6,2.5,9.5,7.2c1.8,4.4,0.8,9.8-3.2,12.6c-3.2,2.1-3,4-1.5,6.8c0.8,1.4,1.3,3,1.9,4.6
			c1.7,5,3.9,8.4,9.8,10.2c9.4,2.9,13.9,13.6,10.9,23.3c-0.8,2.6-0.6,4.1,1.5,5.9c5.3,4.8,10.4,9.9,15.5,14.9
			c1.7,1.7,3.6,2.8,5.8,3.8c4,1.8,5.4,6.3,3.4,10.1c-2,3.7-6.8,5-10.3,2.7c-3.8-2.4-4.9-7.2-1.8-10.7c1.8-2.1,1.6-3-0.2-4.7
			c-4.9-4.5-9.7-9.1-14.4-13.9c-1.8-1.8-2.7-1.4-4.3,0.1c-6.6,6.1-14.1,7.1-22.1,3.5c-6.9-3.2-11.3-11-10.9-18.3
			c0.6-8.5,5.8-15.2,14.4-17.8c2.6-0.8,2.8-1.5,1.8-3.7c-1.1-2.2-1.9-4.6-2.8-6.9c-1.5-3.9-2.7-7.2-7.9-8.2
			c-5.2-0.9-7.8-7.3-6.6-12.9C219,26.5,223.7,22.8,229.8,22.8z"/>
		<path class="st5" d="M402.2,140.2c0.1,10.4-7.8,19-18,19.6c-10.6,0.6-19.6-6.9-20.4-17.5c-0.2-3.2-1.3-4.8-4.4-5.4
			c-2.6-0.6-5.1-1.4-7.6-2.4c-4.8-2-8.9-3.3-13.7,1.2c-4,3.8-10.2,2.2-13.9-1.9c-3.4-3.7-3.8-9.8-1-13.9c3.2-4.6,9.2-6.7,14.1-3.8
			c3.2,1.9,5.3,1.3,8.1-0.3c3.7-2.2,7.6-4.1,11.4-6.1c3-1.6,5.9-2.6,6.8-6.9c0.7-3.5,4.4-4.8,8.1-3.4c3.5,1.3,5.1,5.3,3.7,8.6
			c-1.4,3.4-5.6,5.5-8.6,3.4c-3-2.1-4.9-0.7-7.2,0.4c-3.8,2-7.5,4.6-11.5,5.9c-5.6,1.7-4.9,5.3-4.3,9.5c0.3,1.9,1.7,1.9,2.8,2.3
			c4.6,1.6,9.2,2.8,13.7,4.5c2.9,1.1,3.9,0.3,5.2-2.3c4.3-8.5,13.2-12.4,22.2-10.1C396.3,123.8,402.2,131.3,402.2,140.2z"/>
		<path class="st5" d="M437.9,74.8c1.1,1,2.3,2,3.2,3.1c3.2,4.1,5.9,5.5,11,1.5c5.8-4.5,13-3.9,19.3-0.3c6.3,3.7,9.7,9.4,9.6,16.9
			c0,10-6.7,17.6-16.9,19.2c-9.1,1.4-18.7-4.5-21-13.8c-0.9-3.4-2.6-4.2-5.4-4.5c-7.1-0.9-14.2-1.7-21.3-2.8
			c-2.2-0.3-3.1,0.2-4.1,2.2c-2.8,5.4-8.1,7.6-13.3,6c-4.9-1.5-8.4-6.4-8.1-11.3"/>
		<path class="st5" d="M412.9,88.2c0.8,2.1,2,2.7,4,3c7.3,0.9,14.5,1.9,21.8,2.8c1.4,0.2,3.7,1.2,3.8-0.8c0-3,4.1-5.5,1-8.6
			c-3-3.1-6.2-6-9.2-9.1c-1.3-1.4-2.6-1.4-4.4-1"/>
		<path class="st6" d="M112.1,85.7c-1,3.6,0.6,4.9,4.8,5.8c9.5,1.9,15.8,10.8,15,20.2c-0.8,9.6-8.6,17.3-18.2,18.1
			c-9.1,0.7-17.5-5.5-20-14.7c-2.5-9.2,2-18.8,11.2-22.4c3.5-1.4,4.3-3.2,4.3-6.5c0-4.5,0.6-9,0.8-13.5c0.1-3.2,0.4-6.2-2.7-8.9
			c-2.7-2.4-2.2-6.3,0.8-8.8c3-2.5,6-2,9,0.5c7.3,6,15.6,9.4,25.2,8.2c5.5-0.7,10.2,1.2,12.6,5.8c2.3,4.6,1.2,10.2-2.6,13.6
			c-3.7,3.2-9.4,3.6-13.5,0.9c-4.3-2.8-6.6-8.4-4.4-13.1c1.7-3.6,0.1-4.2-2.5-5c-2.2-0.7-4.4-1.5-6.6-2.2c-8-2.6-11.9,0.4-12.3,9
			C112.8,76.9,112.4,81,112.1,85.7z"/>
		<path class="st6" d="M208.1,165.4c0,10.8-8.4,19.4-19.2,19.4c-10.9,0.1-19.8-8.9-19.6-19.6c0.2-10.5,9.3-19.4,19.6-19.3
			C199.7,146.1,208.1,154.7,208.1,165.4z"/>
		<path class="st6" d="M195.9,103.7c-0.3,3.5-2.3,6.9-6.5,8.9c-4.4,2.1-8.4,1.3-12.1-1.7c-4.2-3.4-12.5-1.3-14.4,3.7
			c-0.6,1.5-1.5,2.5-2.7,3.5c-1.4,1.2-4,0.3-4.6,3.2c-1.1,5.2-2.6,10.3-3.8,15.5c-0.3,1.5,1.6,1.9,2.5,2.8c4.4,4,5.6,9.2,3.1,13.9
			c-2.2,4.3-7.6,7-12.1,6c-5.2-1.1-9.2-5.8-9.3-11c-0.1-5.1,3.5-9.9,9-11.1c2.7-0.6,3.9-1.6,4.4-4.3c0.6-3.3,1.5-6.5,2.5-9.6
			c0.9-2.8,1.3-5.2-0.9-7.8c-2.1-2.5-1.3-5.4,0.9-7.7c2.2-2.3,5-3.1,7.7-1.2c4.8,3.6,8.7-0.6,13-1.3c1.9-0.3,0.4-2.3,0.5-3.4
			c0.5-6.4,5.8-11.3,11.9-11C191.2,91.4,196.1,96.7,195.9,103.7z"/>
		<path class="st6" d="M55.4,110.8c4.4,0.1,6.5-4.7,5.6-9c-2.4-10.7-12.1-7.6-18.4-10.7c-1.5-0.7-2,1.4-2.7,2.4
			c-3.7,4.4-9,5.9-13.8,3.8c-4.7-2-7.5-7.4-6.6-12.2c1.1-5.2,5.2-9,10.3-9.2c5.7-0.3,10.3,2.8,11.7,8.7c0.7,2.8,2.2,3.7,4.5,4.3
			c2.1,0.5,4.2,1,6.3,1.7c4.2,1.4,7.7,2.1,11.2-2.5c3.2-4.2,9.3-4,13.7-1c4.1,2.8,5.8,8.5,4,13.3c-1.9,5-7.1,8-12.3,7.2
			c-4.3-0.7-8.8,3.6-8.3,8c0.5,4.9-2,8.2-6.2,8.3c-3.7,0.1-6.6-2.8-6.6-6.6C47.7,113,50.5,110.7,55.4,110.8z"/>
		<path class="st7" d="M218.4,130.8c5.3,0,9.8,3.3,11.1,8.9c0.6,2.4,1.4,3.6,3.9,4.3c5.1,1.4,10.1,3.2,15.2,4.9
			c2.5,0.8,4.7,1.3,7.6,0.3c3.5-1.3,6.6,0.5,7.7,4.3c1.1,3.7-0.2,6.6-3.9,8.1c-3.5,1.4-7.7-0.3-8.2-4.1c-0.5-4.5-3.3-5.4-6.7-6.3
			c-2.7-0.7-5.7-1.2-8-2.6c-5.7-3.5-9.2-0.6-12.8,3.3c-1.3,1.4-0.5,2.5-0.2,3.6c2.3,8.3,4.7,16.6,7,24.9c0.4,1.5,1.1,2.4,2.8,3
			c5.1,1.6,6.9,4.9,5.3,8.8c-1.4,3.6-5.7,5.3-9.1,3.6c-3.4-1.7-4.4-5.6-2.1-9.9c0.8-1.4,0.7-2.3,0.3-3.7c-2.5-8.6-5.1-17.2-7.3-25.9
			c-0.8-3-2.8-2.6-4.8-3.1c-5.7-1.3-9.6-6.6-8.9-12.1C208,135.3,212.8,130.9,218.4,130.8z"/>
		<path class="st7" d="M452.3,141.7c0,8.1-7.5,13.5-15.2,10.4c-2.7-1.1-4.1-0.5-6,1.3c-2.8,2.8-6,5.3-8.9,8c-2.4,2.3-5.3,4-4.8,8.5
			c0.3,3.5-4.1,6-7.6,5.3c-3.6-0.7-5.8-4.1-5-7.9c0.7-3.5,4.2-6,7.9-4.8c2.6,0.8,4,0.2,5.6-1.5c1.5-1.6,3.2-2.9,4.8-4.3
			c4.5-3.9,9.2-6.9,7.4-15c-0.9-4.1-1.3-7.3-4.7-10.1c-2-1.6-3.5-2.2-6.2-1.6c-4.3,1-7.4-1.6-7.7-5.6c-0.3-3.8,2.3-6.9,5.9-7.2
			c3.5-0.3,7.1,2.4,7,6.2c-0.3,5.6,4.6,6.8,7.3,9.8c1.3,1.4,2.6-0.8,3.8-1.4C443.8,128.2,452.2,133.3,452.3,141.7z"/>
		<path class="st6" d="M74.2,58.8c-2.5-0.2-4.2-1.1-5.5-2.8c-2.1-2.7-13.3-6-16.6-5.1c-1.4,0.4-1.4,1.7-2.1,2.6
			c-3.5,4.6-8.6,6.3-13.6,4.3c-4.6-1.8-7.8-7.2-7.1-12c0.8-5,5-9.1,10-9.7c5.2-0.6,10.3,2.4,11.8,7.9c0.9,3.2,2.4,4.2,5.4,4.1
			c2,0,4,0.4,5.9,0.9c3,0.8,5.4,0.8,7.9-1.9c2-2.2,5.3-2,7.7,0.1c2.2,1.8,3.2,4.2,2.1,7.1C79.2,57.3,76.9,58.5,74.2,58.8z"/>
		<path class="st8" d="M305.1,64.8c1,0.7,2,1.4,3.1,2.2c-0.7,1.7-1.4,3.4-2.2,5c-1.7,3.7-3.5,6.9,0.2,11.1c3.1,3.5,1.7,9.3-1.6,12.7
			c-3.5,3.6-8.8,4.6-13.2,2.4c-4.3-2.1-6.9-6.9-6.3-11.4c0.7-4.8,4.6-8.8,9.3-9.8c2.2-0.5,5.1,1.6,6.4-0.6
			C302.8,72.7,305.1,69.1,305.1,64.8z"/>
		<path class="st7" d="M259.9,5.5c-3.6,0-7.1,0-10.7,0c-3.5,2-6.1,5.9-6,10c0.1,5.9,5.2,11.1,11.1,11.3c6,0.2,11.5-5.1,11.6-11.2
			C265.9,11.4,263.4,7.5,259.9,5.5z"/>
		<path class="st7" d="M296,169.4c0,6.3-5.2,11.5-11.5,11.4c-6-0.1-10.9-5.2-10.9-11.4c0-6.3,5.2-11.5,11.4-11.3
			C291.2,158.2,296.1,163.2,296,169.4z"/>
		<path class="st6" d="M213.3,69.2c0,6.1-4.8,11.2-10.9,11.4c-6.1,0.2-11.5-5.1-11.5-11.3c0-6.3,5.1-11.5,11.4-11.4
			C208.4,58,213.2,63.1,213.3,69.2z"/>
		<path class="st5" d="M391.9,176.6c6.3-0.1,11.1,4.5,11.3,10.8c0.2,6.5-4.6,11.5-11,11.6c-6.2,0.1-11.1-4.6-11.3-10.8
			C380.7,181.6,385.4,176.7,391.9,176.6z"/>
		<path class="st9" d="M277.3,52.7c-2.7,1-4.8,2-5.9,5.2c-1.2,3.4-5.9,4.5-8.9,2.6c-3.1-2-4.5-4.9-2.7-8.5c1.7-3.3,6.1-5.3,8.7-2.8
			c3.3,3.1,5.8,1.5,8.8,0.2"/>
		<path class="st10" d="M331.5,91c-0.1,3.5-3.4,6.8-6.9,6.5c-3.8-0.4-6-2.8-6.3-6.5c-0.3-3.4,3.1-6.7,6.7-6.7
			C328.5,84.2,331.6,87.4,331.5,91z"/>
		<path class="st11" d="M187.1,50.9c-3.7,0-6.5-2.9-6.3-6.8c0.2-4,2.5-6,6.4-6.2c3.6-0.2,6.7,2.9,6.7,6.5
			C193.9,48.1,190.9,50.9,187.1,50.9z"/>
		<path class="st12" d="M219.9,186.5c-0.1,3.7-3,6.4-6.9,6.3c-3.7-0.1-6.5-3-6.2-6.9c0.3-3.9,2.6-6,6.5-6.1
			C217,179.7,220,182.9,219.9,186.5z"/>
		<path class="st13" d="M355.5,169.9c3.7,0,6.6,3.1,6.5,6.8c-0.1,3.8-3,6.5-6.9,6.2c-4-0.2-6-2.6-6.2-6.4
			C348.7,172.7,351.7,169.8,355.5,169.9z"/>
		<path class="st13" d="M213.5,121c-3.9,0.1-6.6-2.6-6.7-6.4c0-3.7,2.9-6.8,6.6-6.6c3.8,0.2,6.1,2.5,6.5,6.3
			C220.2,118,217.4,120.9,213.5,121z"/>
		<path class="st11" d="M185.6,77.8c0.1,3.4-3,6.8-6.5,6.9c-3.4,0.1-6.9-3.2-6.7-6.7c0.2-3.8,2.3-6.1,6.3-6.4
			C182.4,71.3,185.4,74.1,185.6,77.8z"/>
		<path class="st12" d="M126.6,149.6c-0.1,3.5-3.4,6.5-7.1,6.2c-4-0.3-5.9-2.9-6.2-6.6c-0.3-3.5,3.2-6.5,6.8-6.5
			C123.7,142.8,126.7,146,126.6,149.6z"/>
		<path class="st12" d="M161.2,43.4c0,3.7-3,6.6-6.7,6.4c-3.9-0.3-6-2.8-6.3-6.4c-0.3-3.6,2.8-6.5,6.6-6.6
			C158.5,36.7,161.3,39.5,161.2,43.4z"/>
		<path class="st9" d="M289.5,147.4c-3.7,0.1-6.6-2.7-6.7-6.5c0-4,2.3-6.1,6-6.6c3.5-0.4,6.8,2.6,7.1,6.2
			C296.1,144.1,293.1,147.3,289.5,147.4z"/>
		<path class="st12" d="M32.3,112.5c3.7,0,6.7,3,6.6,6.6c-0.1,3.5-3.5,6.7-6.9,6.4c-3.8-0.4-6-2.6-6.1-6.5
			C25.7,115.2,28.5,112.5,32.3,112.5z"/>
		<path class="st9" d="M241.8,126.3c-3.7,0.1-6.7-2.7-6.8-6.4c-0.1-3.6,3-6.8,6.6-6.6c3.8,0.2,6.2,2.3,6.4,6.2
			C248.3,123.2,245.5,126.2,241.8,126.3z"/>
		<path class="st12" d="M87.9,143.9c-3.6,0.1-6.7-2.9-6.8-6.5c0-3.5,3.2-6.7,6.7-6.6c3.9,0.2,6.1,2.3,6.3,6.3
			C94.5,141,91.8,143.8,87.9,143.9z"/>
		<path class="st12" d="M94.5,68.1c-3.7,0-6.7-2.9-6.5-6.6c0.2-3.9,2.6-6,6.3-6.4c3.5-0.3,6.6,2.8,6.7,6.5
			C101.1,65.4,98.4,68.1,94.5,68.1z"/>
		<path class="st14" d="M3,72.9c0-1.7,0-3.4-0.1-5.1c1.6-3.7,4.7-4.7,8.2-3.7c2.8,0.8,4.3,3.2,4.3,6.1c0.1,3.2-1.7,5.4-4.7,6.3
			C7.2,77.6,4.7,76,3,72.9z"/>
		<path class="st15" d="M358.4,94c-1,1.4-2.6,2.2-4.4,1c-1.7-1.1-2-2.5-1.6-4.7"/>
		<path class="st16" d="M82.9,109.8c2.1,0.1,3.2,1.4,3.3,3.5c0.1,2.2-1.2,3.4-3.3,3.5c-2.2,0.1-3.4-1.5-3.5-3.4
			C79.3,111.4,80.6,110,82.9,109.8z"/>
		<path class="st16" d="M91.4,75.6c2.1,0.1,3.5,1.1,3.6,3.3c0.1,2.2-1.5,3.5-3.4,3.6c-2,0.1-3.4-1.2-3.5-3.4
			C87.9,76.8,89.3,75.9,91.4,75.6z"/>
		<path class="st16" d="M106.7,43.5c-0.6,2-1.6,3.3-3.8,3.2c-2.2-0.1-3.2-1.6-3.1-3.7c0.1-2.2,1.5-3.3,3.6-3.2
			C105.6,40,106.5,41.6,106.7,43.5z"/>
		<path class="st17" d="M462.2,63.8c-2.1-0.1-3.3-1.3-3.5-3.4c-0.1-2.2,1.1-3.4,3.2-3.6c2.3-0.2,3.5,1.4,3.6,3.3
			C465.7,62.1,464.4,63.5,462.2,63.8z"/>
		<path class="st18" d="M51.1,132.3c-0.1,2.3-1.5,3.4-3.5,3.4c-2.1,0-3.4-1.5-3.3-3.5c0.1-2,1.4-3.4,3.5-3.3
			C50,128.9,50.9,130.3,51.1,132.3z"/>
		<path class="st19" d="M119.8,30.8c2.1,0.2,3.2,1.5,3.2,3.6c0,2.2-1.5,3.3-3.5,3.3c-2.1,0-3.4-1.5-3.3-3.5
			C116.3,32.2,117.7,30.9,119.8,30.8z"/>
		<path class="st20" d="M71.5,72.1c2,0.3,3.4,1.2,3.6,3.4c0.2,2.2-1.1,3.4-3.2,3.6c-2.2,0.2-3.5-1.2-3.6-3.2
			C68.1,73.7,69.5,72.6,71.5,72.1z"/>
		<path class="st21" d="M414.3,143.8c2.2,0.5,3.6,1.7,3.4,3.8c-0.2,2-1.5,3.4-3.7,3.2c-2.2-0.1-3.2-1.6-3.2-3.7
			C410.9,144.8,412.6,144.2,414.3,143.8z"/>
		<path class="st18" d="M160,165c-0.1,2.2-1.7,3.3-3.6,3.2c-2,0-3.4-1.3-3.4-3.5c0.1-2.2,1.6-3.3,3.6-3.3
			C158.7,161.5,159.9,162.8,160,165z"/>
		<path class="st22" d="M438.3,115c2.1,0.6,3.6,1.6,3.4,3.8c-0.1,2.1-1.5,3.3-3.6,3.2c-2.2-0.1-3.3-1.4-3.2-3.6
			C434.9,116.1,436.6,115.5,438.3,115z"/>
		<path class="st23" d="M314.3,117.7c-2-0.1-3.3-1.2-3.5-3.4c-0.1-2.2,1-3.4,3.2-3.6c2.3-0.2,3.5,1.3,3.6,3.2
			C317.8,116,316.5,117.4,314.3,117.7z"/>
		<path class="st18" d="M139.6,126.6c-2-0.4-3.5-1.5-3.4-3.6c0-2.1,1.4-3.4,3.5-3.4c2.1,0,3.4,1.2,3.4,3.4
			C143,125.3,141.4,126.1,139.6,126.6z"/>
		<path class="st24" d="M195.4,129.1c-0.1,2.1-1.2,3.5-3.3,3.6c-2.2,0.1-3.4-1.3-3.5-3.3c-0.1-2,1-3.4,3.3-3.5
			C194.2,125.6,195,127.1,195.4,129.1z"/>
		<path class="st16" d="M60.1,33.6c2.3,0,3.6,1.3,3.6,3.3c0,1.9-1.2,3.5-3.3,3.5c-2,0-3.3-1.2-3.5-3.4
			C56.8,34.9,58.1,33.9,60.1,33.6z"/>
		<path class="st19" d="M169.9,135.8c2.1,0,3.2,1.3,3.3,3.4c0.1,2.1-1.1,3.4-3.2,3.5c-2.2,0.1-3.4-1.4-3.5-3.4
			C166.4,137.4,167.6,136,169.9,135.8z"/>
		<path class="st25" d="M56,73.1c-0.4,2.3-1.4,3.7-3.5,3.8c-2.2,0.1-3.4-1.2-3.5-3.3c-0.1-2.2,1.4-3.4,3.4-3.5
			C54.5,69.8,55.4,71.5,56,73.1z"/>
		<path class="st26" d="M146.8,32.7c-0.6,1.9-1.6,3.2-3.8,3.1c-2.2-0.1-3.2-1.5-3.1-3.6c0.1-2.2,1.6-3.3,3.6-3.2
			C145.6,29.1,146.6,30.6,146.8,32.7z"/>
		<path class="st27" d="M278,82.4c-0.5,2-1.7,3.3-3.7,3.2c-2-0.1-3.3-1.5-3.2-3.6c0.1-2.2,1.6-3.2,3.6-3.2
			C276.8,78.8,277.8,80.3,278,82.4z"/>
		<path class="st28" d="M160.4,95.7c-2.1-0.6-3.5-1.6-3.5-3.8c0-2.3,1.5-3.3,3.5-3.2c2.1,0.1,3.4,1.5,3.3,3.5
			C163.7,94.3,162.2,95.4,160.4,95.7z"/>
		<path class="st29" d="M212.2,37.1c0,2.4-1.1,3.6-3.3,3.7c-2.3,0.1-3.5-1.4-3.6-3.3c-0.1-1.9,1.1-3.5,3.3-3.6
			C210.8,33.9,211.9,35.2,212.2,37.1z"/>
		<path class="st18" d="M16.9,50.8c-2.2,0-3.3-1.5-3.4-3.4c-0.1-2,1.2-3.4,3.3-3.5c2.2-0.1,3.3,1.3,3.4,3.4
			C20.3,49.4,19.1,50.6,16.9,50.8z"/>
		<path class="st21" d="M316.4,144.8c-0.1,2.2-1.3,3.5-3.4,3.5c-2.1,0-3.4-1.4-3.5-3.4c0-2,1.2-3.3,3.4-3.4
			C315.2,141.5,316.1,142.9,316.4,144.8z"/>
		<path class="st21" d="M278.3,185.8c2.1,0.2,3.2,1.7,3.2,3.6c-0.1,2-1.3,3.4-3.6,3.3c-2.3-0.1-3.2-1.5-3.2-3.6
			C274.7,187,276.2,186,278.3,185.8z"/>
		<path class="st30" d="M242.7,163.6c-0.5,2-1.5,3.3-3.7,3.3c-2.3-0.1-3.2-1.5-3.2-3.6c0-2.3,1.6-3.3,3.5-3.3
			C241.4,160.1,242.3,161.7,242.7,163.6z"/>
		<path class="st22" d="M340.6,102c-0.4,2-1.4,3.5-3.6,3.5c-2.1,0-3.3-1.3-3.3-3.5c0-2.2,1.3-3.3,3.4-3.3
			C339.4,98.5,340.3,100.1,340.6,102z"/>
		<path class="st29" d="M302.6,124c-0.5,2.1-1.6,3.4-3.7,3.2c-2.1-0.1-3.2-1.5-3.1-3.6c0.1-2.2,1.6-3.2,3.6-3.1
			C301.4,120.6,302.4,122.1,302.6,124z"/>
		<path class="st31" d="M488.3,86c-1.7-0.1-2.6-1.5-2.6-3.5c0-2.2,1.5-3.3,3.5-3.3c2,0.1,3.3,1.5,3.2,3.6
			C492.3,84.9,491,86,488.3,86z"/>
		<path class="st32" d="M169,55.9c-0.4,2.3-1.4,3.7-3.5,3.8c-2.1,0-3.4-1.3-3.5-3.4c-0.1-2.2,1.3-3.3,3.3-3.5
			C167.5,52.7,168.3,54.4,169,55.9z"/>
		<path class="st33" d="M244.3,203c-0.2,2.6-1.6,3.7-3.6,3.6c-2.1-0.1-3.2-1.6-3.1-3.7c0.1-2.1,1.5-3.2,3.6-3.2
			C243.5,199.9,244.1,201.5,244.3,203z"/>
		<path class="st32" d="M30.7,27.7c2.1,0.3,3.3,1.6,3.3,3.6c-0.1,2.1-1.6,3.3-3.6,3.2c-2-0.1-3.4-1.5-3.3-3.6
			C27.2,28.9,28.7,27.9,30.7,27.7z"/>
		<path class="st23" d="M376.6,196.8c-0.4,1.9-1.4,3.2-3.6,3.2c-2.3,0-3.3-1.4-3.3-3.4c-0.1-2.2,1.4-3.4,3.4-3.4
			C375.2,193.2,376.3,194.6,376.6,196.8z"/>
		<path class="st18" d="M163.6,187.4c-2.1-0.5-3.5-1.5-3.4-3.6c0.1-2,1.4-3.3,3.6-3.2c2.2,0.1,3.3,1.3,3.3,3.5
			C167,186.4,165.3,186.9,163.6,187.4z"/>
		<path class="st15" d="M261.7,182.7c-0.5,2-1.5,3.3-3.7,3.2c-2.3-0.1-3.2-1.5-3.1-3.6c0-2.3,1.6-3.3,3.5-3.2
			C260.4,179.2,261.4,180.7,261.7,182.7z"/>
		<path class="st23" d="M252.8,47.8c-0.3,1.9-1.3,3.4-3.4,3.4c-2,0.1-3.4-1-3.6-3.2c-0.1-2.3,1.3-3.4,3.3-3.6
			C251.2,44.3,252.4,45.7,252.8,47.8z"/>
		<path class="st32" d="M145.9,184.8c-2.4-0.2-3.7-1.3-3.9-3.3c-0.2-2.2,1.2-3.4,3.2-3.6c2.2-0.2,3.4,1.3,3.6,3.2
			C149,183.2,147.4,184.1,145.9,184.8z"/>
		<path class="st22" d="M427,182.5c-1.8-0.2-3.2-1.2-3.3-3.4c-0.1-2.2,1.1-3.4,3.2-3.5c2.2-0.1,3.5,1.3,3.6,3.2
			C430.6,180.9,429.3,182.2,427,182.5z"/>
		<path class="st24" d="M377.2,169.6c2.2,0.1,3.5,1.4,3.5,3.4c0,1.9-1.3,3.5-3.4,3.5c-2,0-3.3-1.3-3.4-3.5
			C373.7,170.8,375,169.8,377.2,169.6z"/>
		<path class="st34" d="M132.4,170.9c-2-0.4-3.4-1.6-3.2-3.7c0.1-2,1.5-3.4,3.6-3.3c2.1,0.1,3.3,1.5,3.2,3.6
			C136,169.8,134.4,170.6,132.4,170.9z"/>
		<path class="st35" d="M346.3,149.8c0,2.4-1.2,3.6-3.3,3.7c-2.1,0.1-3.4-1.4-3.5-3.4c-0.1-2,1.2-3.3,3.3-3.4
			C345.1,146.6,346,148,346.3,149.8z"/>
		<path class="st19" d="M201.7,28.9c-0.6,2.1-1.7,3.3-3.9,3.1c-2.3-0.2-3.1-1.7-2.9-3.8c0.2-2.1,1.8-2.9,3.5-2.9
			C200.4,25.3,201.5,26.9,201.7,28.9z"/>
		<path class="st16" d="M125.8,84.5c-1.8-0.4-3.1-1.6-3-3.8c0.1-2,1.3-3,3.2-3.1c2.3-0.1,3.5,1.4,3.5,3.4
			C129.6,83.1,128.2,84.3,125.8,84.5z"/>
		<path class="st36" d="M258.8,138.1c-2.2-0.1-3.4-1.6-3.3-3.6c0.1-2.1,1.6-3.3,3.8-3.2c1.9,0.1,3,1.4,3,3.4
			C262.3,136.9,261,138,258.8,138.1z"/>
		<path class="st24" d="M395.7,111.7c-0.3,1.8-1.2,3.3-3.4,3.3c-2.1,0.1-3.4-1-3.5-3.2c-0.1-2.3,1.2-3.4,3.3-3.5
			C394.2,108.2,395.2,109.7,395.7,111.7z"/>
		<path class="st37" d="M30.7,69.5c-2-0.5-3.2-1.7-3-3.9c0.2-2.3,1.7-3.1,3.8-2.9c2.1,0.2,2.9,1.8,2.8,3.5
			C34.3,68.3,32.8,69.4,30.7,69.5z"/>
		<path class="st16" d="M67.6,131.5c2.1,0.1,3.4,1,3.5,3.2c0.1,2.3-1.3,3.4-3.2,3.5c-2.1,0.2-3.4-1.3-3.6-3.2
			C64.2,133,65.5,131.7,67.6,131.5z"/>
		<path class="st38" d="M132,47.1c-0.1,2.2-1.3,3.5-3.4,3.6c-2.1,0.2-3.4-1.3-3.6-3.3c-0.2-2.1,1.3-3.4,3.3-3.6
			C130.5,43.8,131.6,45.2,132,47.1z"/>
		<path class="st26" d="M211.2,88.2c2.1,0.3,3.5,1.5,3.4,3.6c-0.1,2.1-1.4,3.3-3.6,3.2c-2-0.1-3-1.2-3.1-3.2
			C207.7,89.5,209.3,88.7,211.2,88.2z"/>
	</g>
</g>
</svg>
