<?xml version="1.0" encoding="utf-8"?>
<!-- Generator: Adobe Illustrator 22.0.1, SVG Export Plug-In . SVG Version: 6.00 Build 0)  -->
<svg class="shape2" version="1.1" id="Layer_1" xmlns="http://www.w3.org/2000/svg"
	 xmlns:xlink="http://www.w3.org/1999/xlink"
	  x="0px" y="0px"
	 viewBox="0 0 849 855" style="enable-background:new 0 0 849 855;" xml:space="preserve">
<style type="text/css">
	.shape2 .st0{fill:#EEF6F1;}
	.shape2 .st1{fill:#F4F9F1;}
	.shape2 .st2{fill:#EFF6F1;}
	.shape2 .st3{fill:#208742;}
	.shape2 .st4{fill:#F0F8F1;}
	.shape2 .st5{fill:#3EAE49;}
	.shape2 .st6{fill:#6DBD4B;}
	.shape2 .st7{fill:#3FAF4A;}
	.shape2 .st8{fill:#6DBE4C;}
	.shape2 .st9{fill:#6DBE4B;}
	.shape2 .st10{fill:#EFF7F0;}
	.shape2 .st11{fill:#218843;}
	.shape2 .st12{fill:#3EAF49;}
	.shape2 .st13{fill:#3FAF49;}
	.shape2 .st14{fill:#40AF4B;}
	.shape2 .st15{fill:#EFF8F0;}
	.shape2 .st16{fill:#41B04C;}
	.shape2 .st17{fill:#F1F8F1;}
	.shape2 .st18{fill:#EFF6F2;}
	.shape2 .st19{fill:#F4F9F2;}
	.shape2 .st20{fill:#6FBF4E;}
	.shape2 .st21{fill:#71BF50;}
	.shape2 .st22{fill:#70BF4F;}
	.shape2 .st23{fill:#42B04C;}
	.shape2 .st24{fill:#6FBE4D;}
	.shape2 .st25{fill:#41AF4B;}
	.shape2 .st26{fill:#EEF7EF;}
	.shape2 .st27{fill:#40AE4C;}
	.shape2 .st28{fill:#6EBE4D;}
	.shape2 .st29{fill:#EDF6EE;}
	.shape2 .st30{fill:#F0F8F0;}
	.shape2 .st31{fill:#41AD4D;}
	.shape2 .st32{fill:#F0F7F2;}
	.shape2 .st33{fill:#EBF6EC;}
	.shape2 .st34{fill:#4CB456;}
	.shape2 .st35{fill:#4BB456;}
	.shape2 .st36{fill:#4DB557;}
	.shape2 .st37{fill:#4EB558;}
	.shape2 .st38{fill:#50B65A;}
	.shape2 .st39{fill:#7BC35C;}
	.shape2 .st40{fill:#4AB455;}
	.shape2 .st41{fill:#4BB455;}
	.shape2 .st42{fill:#78C259;}
	.shape2 .st43{fill:#7BC45C;}
	.shape2 .st44{fill:#7CC45D;}
	.shape2 .st45{fill:#4AB354;}
	.shape2 .st46{fill:#51B55C;}
	.shape2 .st47{fill:#44B050;}
	.shape2 .st48{fill:#71BF51;}
	.shape2 .st49{fill:#44B14F;}
	.shape2 .st50{fill:#78C258;}
	.shape2 .st51{fill:#30904F;}
	.shape2 .st52{fill:#72C052;}
	.shape2 .st53{fill:#7AC35C;}
	.shape2 .st54{fill:#52B75C;}
	.shape2 .st55{fill:#49B353;}
	.shape2 .st56{fill:#48B252;}
	.shape2 .st57{fill:#44B14E;}
	.shape2 .st58{fill:#47B251;}
	.shape2 .st59{fill:#76C156;}
	.shape2 .st60{fill:#4EB359;}
	.shape2 .st61{fill:#BBDEC2;}
	.shape2 .st62{fill:#CEE8D3;}
	.shape2 .st63{fill:#FDFEFD;}
	.shape2 .st64{fill:#F9F6EE;}
	.shape2 .st65{fill:#F9FBFA;}
	.shape2 .st66{fill:#F9FBF9;}
	.shape2 .st67{fill:#7AC25F;}
	.shape2 .st68{fill:#F4F9F5;}
	.shape2 .st69{fill:#4CB357;}
	.shape2 .st70{fill:#41AE4D;}
	.shape2 .st71{fill:#E8F4EA;}
	.shape2 .st72{fill:#9AC8A9;}
	.shape2 .st73{fill:#ECF5ED;}
	.shape2 .st74{fill:#CFE8D4;}
	.shape2 .st75{fill:#75C155;}
	.shape2 .st76{fill:#79C35A;}
</style>
<g>
	<path class="st0" d="M851,611c-3.2,5.4-6,10.6-12.2,13.8c-9.7,5.1-21.3-0.6-25.4-6.4c-2.4-3.4-4.8-3.8-8.4-2.6
		c-8.7,2.9-17.4,5.6-26.2,8c-3.2,0.9-4.7,1.8-5,5.4c-0.4,5.3-6,10-11.6,10.7c-5.1,0.6-10.6-2.5-13-7.4c-2.3-4.8-1.4-10,2.4-13.7
		c4.5-4.3,10.6-5.6,15.5-2.1c3.9,2.9,7.1,2.6,11.2,1.2c9.1-3,18.3-5.7,27.5-8.4c2.1-0.6,3.4-1.7,3.2-4.2c-0.6-6.1,2.5-10.9,6.3-15.1
		c1.7-1.8,2.3-3.1,1.1-5.6c-1.9-3.9-3.2-8-4.7-12c-0.8-2.2-2.1-3.4-4.6-3.9c-3-0.6-6.1-1.1-8.6-3.6c-5.1-5.2-5.9-11.1-1.7-16.5
		c3.7-4.7,11.1-6.3,15.7-3.3c6.4,4.1,8.5,10.5,4.7,16.7c-2.2,3.6-1.3,6.2-0.1,9.6c3,8.5,6.1,15.3,17.7,13.9
		c5.4-0.7,10.8,3.8,13.3,9.8c0.7,1.6,1.9,3.1,2.8,4.6C851,603.7,851,607.3,851,611z"/>
	<path class="st1" d="M102,3c1.7,1.5,3.5,3,5.1,4.6c4.5,4.7,4.2,11.5-0.6,16.4c-4.8,4.9-11.2,5.3-15.9,1.1c-5.3-4.8-6.3-12.4-2-17.1
		c1.6-1.8,3.6-3.3,5.4-5C96.7,3,99.3,3,102,3z"/>
	<path class="st2" d="M851,566c-1.3,1-1.9,2.6-3.6,3.3c-3,1.3-5.7,0.8-7.7-1.4c-2.2-2.5-2.4-5.5-0.4-8.2c1.8-2.6,4.5-3.3,7.5-2.2
		c1.5,0.6,2.8,1.7,4.2,2.5C851,562,851,564,851,566z"/>
	<path class="st1" d="M0,328c2-1,3.2-3.1,6-3.1c3.2,0,5.6,1.1,6.7,3.9c0.9,2.4,0.5,4.8-1.7,6.7c-2.5,2.1-5.2,1.8-7.8,0.8
		C2,335.9,1,334.8,0,334C0,332,0,330,0,328z"/>
	<path class="st3" d="M372.8,131.8c5.4-6.3,10.8-12.5,16.3-18.8c1.6-3.4,3.8-6.2,7.8-6.8c31.5-27.9,68.1-44.3,110-48.3
		c52.8-5.1,100.1,9,141.7,41.9c2.1,1.6,3.3,2.9,5.6-0.4c3.1-4.8,9.2-5.1,13.1-1.6c4.2,3.8,4.3,10.2-0.2,14c-2.6,2.1-1.9,3,0,4.9
		c5.2,5.6,10.1,11.5,15.1,17.3c1.2,0.5,2.1,1.3,2.8,2.4c0.7,1,1.4,2,2.1,3.1c0.6,0.9,1.3,1.7,2,2.5c2.6,3.7,5.2,7.3,7,11.4
		c1.1,2.2,2.3,4.3,2.9,6.7c0.3,0.8,0.4,1.7,1,2.2c7.7,6.9,6.9,17.4,11,25.8c1.4,2.9,1.3,6.4,4.5,8.5c1.2,0.8,1.2,2.8,0.7,4.2
		c-0.8,2.6,0,4.9,1,7.2c0.5,2,1.4,3.9,2,5.9c0.3,1.6,0.4,3.2,1,4.7c0.8,4.6,1.8,9.1,0.8,13.8c0.1,2.8,0.2,5.6,0.3,8.4
		c0.8,1.3,1.4,2.7,1.1,4.2c-1.5,5.9-0.4,11.8-0.7,17.7c-0.1,4.4,0,8.7,0.8,13c-0.2,1.5-0.7,3-1.3,4.4c-0.2,0.8-0.3,1.6-0.5,2.4
		c-1.5,6.7-1.7,12.9,5.5,16.7c4.4,1,6.8,4.2,9,7.8c2.9,3.1,5.4,6.4,8.9,8.8c4.8,3.3,8.1,7.7,10.2,13.1c1.6,1.9,3.2,3.9,4.8,5.8
		c5,3.9,7.2,9.8,10.3,15.1c1.7,2.8,4.1,5.4,3.6,9.1c2.1,4.4,4.2,8.8,6.3,13.1c6,8.3,7.5,18.3,10.2,27.8c0.7,2.6,2.3,5.3,0.8,8.2
		c1,7.5,2.1,15.1,2.9,22.6c1.5,14.1,0.3,28.2-0.9,42.3c1.4,5.6-0.7,10.8-1.8,16c-0.8,4.1-1,8.7-4.2,12c-7.7,24.5-19,47-35.1,67.1
		c-8.4,10.5-18.1,19.8-28.1,28.9c-2.9,4.5-7.1,7.1-11.9,9.1c-12.3,8.1-24,17.2-37,24.1c-1.7,2.6-4.4,3.4-7.3,3.7
		c-18.8,8.4-38.4,14.1-58.8,17.2c-2.2,1.4-4.6,1.8-7.1,2.1c-9.9,0.9-19.8,0.4-29.8,0.3c-1.5,0-2.9-0.7-4.2-1.5
		c-10.3-1.7-20.5-3.4-30.8-5.1c-7,0.1-13.3-3-19.9-4.8c-8.9-4.3-18.4-7.3-26.9-12.5c-5.7-3.5-6.3-3.2-10.5,2.2
		c-0.7,0.9-1.4,1.8-2.2,2.7c-14.2,14.9-29.9,27.9-47.9,38c-1.2,0.7-2.4,1.6-3.9,1.2c-18.4,9.5-37.6,16.4-57.9,20.4
		c-2.5,0.8-4.7,2.4-7.5,2.5c-4.6,0.1-7.8,1.3-9.3,6.7c-1.6,5.7-8.1,7.4-14.2,4.9c-5.6-2.3-11.4-3.4-17.4-2.4
		c-2.8-0.5-4.7,2.7-7.5,1.9c-4-1.1-5.6-3.6-4.9-7.3c0.2-1.2,1.6-2.1,0.9-3.6c-1.5-2.6-4.1-2.1-6.2-1.7c-5.2,1-9.8,0.1-14.2-2.8
		c-1.7-1.1-3.6-1.6-5.7-1.5c-5.2,0.7-9.5-2.3-14.2-3.5c-1.2-0.3-2.3-0.8-3.4-1.2c-5.5-2.2-11.2-4.3-16.4-7.1c-1-0.6-2.1-1-3.2-1.4
		c-3.8-1.9-7.8-3.4-10.6-6.7c-2.1-1.4-4.1-2.9-6.2-4.3c-2.7,0.3-4.2-1.2-5.2-3.5c-4.9-3.5-9.8-7-14.7-10.5c-4.3-2-7.6-5.2-10.8-8.6
		c-1.1-1.3-2.6-2.3-3.1-4c-6-6.5-11.9-13.1-17.2-20.2c-3.3-0.6-3.3-3.4-4-5.8c-7.3-9.9-13.4-20.5-18.1-31.9c-3.7-1.9-3.9-6-5.4-9.2
		c-0.9-1.9-1.7-4-2.4-6c-1.3-3.9-2.4-7.8-3.5-11.7c-1.1-5.4-4-10.5-2.6-16.3c-1-7.3-2-14.6-3.1-21.9c-2.1-2.6-1.2-5.7-1.3-8.6
		c-0.2-4.8-0.2-9.6-0.1-14.4c0.1-0.9,0.1-1.8,0.1-2.7c0-1.4,0.1-2.8,0.4-4.2c0.9-2.6,0.5-5.2,0.6-7.9c0-1.3,0.1-2.6,0.4-3.9
		c0.4-1.2,0.6-2.5,0.7-3.8c0.9-7.3,2.8-14.4,4.6-21.4c0.5-2.1,1.2-4.2,0.8-6.4c-1.7-5.3-5.6-9.3-8.1-14.2c-2.9-5.6-6.5-10.9-8.6-17
		c-0.5-1.5-1.5-2.9-1.1-4.6c-9.4-22.7-14.3-46.5-15.1-71c-0.3-10.3-0.1-20.6-0.1-30.9c-1.3-2.5,0.4-4.7,0.7-7
		c1.7-14.1,4.2-28.1,8.4-41.7c0.2-1.8-0.1-3.8,1-5.4c0.9-1.6,1.5-3.3,1.9-5.1c0.5-1.8,1.5-3.4,2.1-5.2c3.5-9.5,8.1-18.3,13.5-26.8
		c0.5-0.8,1-1.5,1.6-2.3c1.8-2.6,3.5-5.2,5.1-7.8c2.5-3.4,4.8-7,7.8-10c0.8-0.8,1.5-1.6,2.1-2.6c2.7-3.1,5.2-6.4,7.9-9.4
		c0.8-0.8,1.6-1.6,2.4-2.4c3.2-2.9,5.8-6.3,9.1-9.1c4.3-2.7,7.6-6.5,11.7-9.4c0.7-0.6,1.8-0.2,2.5-0.8
		c15.4-10.6,31.5-20.1,49.1-26.5c4-1.5,8-3,12-4.4c5.4-3.7,11.6-4.2,17.9-3.9c8.5-1.8,17.1-3.1,25.9-3.3c4.8-0.5,9.7-0.4,14.5-1
		c4.9,0.3,9.7,0.7,14.6,1c7.1-1.6,13.9-0.8,20.2,3c3.2,0.6,6.4,1.3,9.7,1.9c2.1-1,3.7-0.2,5.2,1.2c4.2,1.5,8.4,3.2,12.9,3.8
		C370.9,132.5,372,132.5,372.8,131.8z"/>
	<path class="st0" d="M530.8,789.3c7.3-1.1,14.6-1.5,21.9-1.3c3.2,0.1,3.4-1.4,2.8-4.1c-2.5-12.1,3-21.8,13.9-25.2
		c11.7-3.6,22.6,2.6,26.8,14.4c3.2,9-4.1,22.5-13.9,25.4c-7.9,2.4-14.4,0.4-20.4-4.2c-2.2-1.7-4.1-2.5-6.8-2.4
		c-10.5,0.4-20.9,0.7-31.4,1c-2.1,0.1-3.8,0.9-5.5,2.1c-4.9,3.7-10.8,4.1-14.7,1.1c-5.1-3.9-6.8-9.6-4.6-15.4
		c0.9-2.3-2.4-14.2-4.2-15.8c-1.8-1.6-2.7,0.5-3.8,1.1c-13.4,7.3-32.5,5.2-43-5.7c-16.6-17.1-14.6-43.3,6.1-56.8
		c12.3-8,25.2-7.7,37.7-0.6c12.3,7.1,18.1,18.4,18,32.3c-0.1,7.7-2.7,15.1-7.8,21.1c-1.9,2.2-2.5,4.2-1.4,6.8
		c1.2,2.9,2.4,5.8,3.6,8.8c1,2.5,3.2,2,5.1,2c8.4,0.2,12.4,3.5,13.7,11.9C523.9,791.8,528.4,787.6,530.8,789.3z"/>
	<path class="st4" d="M318.6,705.9c6.5-0.6,12.7-2.2,19.1,1.6c5.2,3,12-1.3,12.2-7.4c0.1-3.4,1.3-4,4.3-4.2
		c4.3-0.3,8.5-1.1,12.8-1.7c-2,1.3-1,2.6-0.3,4.2c4.2,9.4,3,16.9-4.6,23.9c-3.6,3.3-4.3,6.4-2.9,10.9c3.9,13.3,7.5,26.8,11.1,40.2
		c0.9,3.4,2.2,5.5,6.2,3.7c1.8-0.8,4-1.4,5.8-1c6.3,1.1,7.9-2.8,9.5-7.6c2.2-6.6,4.8-13.1,7.4-19.5c1.1-2.6,0.8-4.6-1.2-6.7
		c-3.4-3.7-3.9-9.3-1.6-12.9c3.4-5.3,9.5-7.8,15-6.1c4,1.2,8.4,7.1,8.6,11.4c0.2,4.8-3.6,10.7-8.6,11.5c-5.1,0.7-6.6,3.6-8,7.8
		c-2.4,7.1-5.4,13.9-8.3,20.8c-1,2.3-0.9,3.4,1.7,4.5c14.3,5.9,22.3,17.2,22.9,32.2c0.6,17.1-9.5,31.9-27.8,36.6
		c-19.5,5-40.5-7-44.5-29.8c-2.3-13.1,2.4-24.6,12.9-33.2c6.1-5,6.2-4.7,4-12.6c-3.9-13.7-7.6-27.4-11.2-41.2c-0.7-2.6-2-3-4.2-3.2
		c-14-0.9-19.4-5.6-21.8-19.4c-0.3-1.9-1.2-2.5-2.9-2.5C322.3,706,320.4,705.9,318.6,705.9z"/>
	<path class="st1" d="M96.2,416.9c-2.3-1.2-3.3,0.7-4.5,1.9c-14.1,13.7-32.9,15.5-48.7,4c-12.2-8.9-17.6-28.3-11.4-42
		c7.1-15.8,22-24.9,38.7-22.6c15.3,2.1,27.2,11.5,30.7,29.6c0.6,2.9,1.5,4.9,4.2,6c-4.1,2-6.7,4.8-4.9,9.7c-1,2.9-2,5.8-3,8.8
		C97.5,414,97.3,415.6,96.2,416.9z"/>
	<path class="st1" d="M140,213c-0.3,0.7-0.7,1.3-1,2c-1.8,1.3-4,1.6-5.9,2.4c-7.8,3-11.2,9.7-9,17.9c0.6,2.2,1.7,4.3,1.2,6.7
		c-0.7,1.7-1.5,3.4-2.2,5.1c-0.8,0.4-1.5-0.1-2.3-0.3c-0.8-0.2-1.7-0.3-2.1,0.6c-0.4,0.9,0.3,1.5,0.9,2c0.8,0.7,1.9,1.3,1.8,2.6
		c-0.7,1.8-1.5,3.6-2.2,5.3c-0.5-0.8-1-1.2-2-0.7c-17.9,8.3-42.4-4.2-47.5-24.4c-4.9-19.2,5.1-35.1,19.5-42.3
		c13.9-6.9,32.6-4.1,43.3,9.9c2.5,3.3,6,2.9,7.5-0.6c4.3-1.1,7.8-4.7,12.7-4c-2.5,3.3-5,6.6-7.5,10C142.1,206.8,138.2,208,140,213z"
		/>
	<path class="st1" d="M119,144.9c-0.4,4.6-4.2,10.1-10.6,13.9c-7.1,4.2-14.1,3.8-21.2-0.2c-6.4-3.6-9.1-9.5-10-16.2
		c-0.4-2.8-1.2-4.1-4-4.5c-3.9-0.6-7.8-1.6-11.6-2.5c-1.8-0.4-2.7,0.7-3.9,1.7c-4.8,4-9.7,4.1-14.4,0.6c-4.9-3.6-6.4-9.5-4.1-15.1
		c2-4.7,7.9-8.1,12.9-7.4c4,0.6,9.8,6,9.9,10.1c0,3.8,1.7,5,5,5.4c0.5,0.1,0.9,0.3,1.4,0.4c5.7,1.6,11.3,2.9,14.6-4.1
		c0.4-0.9,1.2-1.7,2.1-2.1c7.6-3.2,5.7-9.6,5-15.4c-0.8-6.6-2-13.1-2.8-19.6c-0.3-2.8-1.6-3.6-4.2-3.7c-9.6-0.2-18.3-10.7-19-19.2
		c-0.9-11.9,8.4-20.4,16.7-22.4c8.7-2.1,18.9,2.7,23.1,10.9c4.8,9.4,3.2,20.1-6,26.1c-6.1,4-4.9,8.4-4.4,13.3
		c0.7,6.7,2.4,13.3,2.9,20.1c0.2,2.5,0.9,4.8,4.2,5.3C112.1,122,119,130.2,119,144.9z"/>
	<path class="st0" d="M428,672c17.6-10.6,33.6-23.4,47.8-38.3c11.8,0.8,23.4,3,34.8,6.2c1.7,0.5,3.4,1.3,5.3,1.1
		c6.9,1.2,13.5,3.8,20.2,5.8c-5.6,0.7-8.6,6-13.5,8c-4.2,1.7-6.1,4.4-3,8.7c0.7,1,0.8,2.5,1.3,3.8c1.7,4.3,2.5,8.6,8.9,9.4
		c6.5,0.9,10.1,7.9,8.8,13.6c-1.7,7-7.3,11.3-13.7,10.5c-6.1-0.8-11.2-6.7-11.1-12.9c0-1.9,0.4-3.9,1.6-5.1
		c3.6-3.8,2.6-7.3,0.8-11.6c-4.4-10.2-4.1-10.1-14.1-6.1c-12.4,4.9-25.3,7.4-38.6,9c-11.1,1.3-21.8-0.5-32.6-1.2
		C429.7,673.7,428.8,673,428,672z"/>
	<path class="st4" d="M304.6,746c6.4,0,10.9,4.3,11.9,11.1c0.8,4.9-3.2,11.4-8.5,12.6c-3.4,0.7-4.8,2.5-5.6,5.4
		c-0.3,1.3-0.7,2.6-1.3,3.8c-4.1,7.2-3.1,12.7,3.9,18c5.4,4.1,7.3,10.9,5.5,17.6c-2.3,8.2-7.2,14.6-16.2,16.5
		c-14,3-26.7-8.1-25.3-21c0.4-3.8-1.2-5.7-4.5-7.2c-10-4.4-19.9-9.1-29.7-13.8c-2.7-1.3-5.1-0.8-7.6,0.5c-5.3,2.6-11.3,1.5-14.9-2.6
		c-3.8-4.3-4.3-9.5-1.2-14.8c2.2-3.9,8.6-6.8,12.9-5.8c5.5,1.3,9.8,6.2,10,12.2c0.1,3.2,1.4,4.9,4.1,6.1c9.1,4.1,18.1,8.3,27.1,12.6
		c3.8,1.8,7,2.4,10-1.5c2.6-3.5,6.8-5,10.9-5.4c4.5-0.5,6.9-2.5,7.8-6.8c0.4-1.9,1-3.9,1.9-5.7c2.3-4.7,2.9-8.5-1.7-12.7
		c-3-2.8-3.1-7.8-1-11.7C295.4,748.8,299.1,745.9,304.6,746z"/>
	<path class="st4" d="M267.2,686.1c4.6,1.6,9.2,3.2,13.8,4.7c1.3,3,2.7,6,4,9.1c-2.2,2.3-2.1,4,1,5.2c0.4,7.7-0.6,15.1-4.6,21.8
		c-0.7,1.1-1.1,2.4-2.4,3c-1.3,0.2-2.8-1.8-3.8,0c-0.7,1.4,1.2,2,1.8,3c-12.8,15.7-37.1,17.1-51.9,2.8c-4.3-4.2-6.5-9.9-11.1-13.7
		c0.8-1.3,2.3-1.2,3.5-1.5c6.2-1.7,8.3-7.9,4.3-13.2c-3.1-4.1-3-8.2,0.2-11.8c5.5-6.2,5.5-6.2-1-10.7c5.3-2.5,10.1-5.8,14.1-10.1
		c3.4,0.1,6.5,1.1,9.3,3c2.9,6.2,4,13,5.8,19.6c0.7,2.5-1,3.9-2.5,5.6c-3.9,4.2-6.5,8.9-4.5,14.9c2.1,6.3,7.4,10.5,13.6,10.6
		c5.8,0.1,11.7-3.9,13.9-9.7c2.2-5.6,0.4-11.8-4.7-16.1C260.2,697.7,260.7,691.1,267.2,686.1z"/>
	<path class="st1" d="M181,52.9c0.8,8-3,14.1-9.5,18.8c-1.9,1.4-2.5,2.4-1.9,4.9c1.8,7.4,3.6,14.7,5.9,22c0.9,2.7,2.4,3.4,4.6,4.2
		c5.6,2,9,6.9,8.9,12c-0.1,4.9-4.1,9.8-9.4,11.6c-4.5,1.5-10.4-0.6-13.2-4.6c-3.3-4.8-3.5-11.1,0.4-14.7c3-2.7,3.1-5.3,2.2-8.8
		c-1.8-6.4-3.4-12.8-5.1-19.2c-0.8-3.2-2.1-4.8-6-5.2c-11.3-1-17.2-8.1-18.5-20.4c-0.9-9.1,7.7-18.3,17-20.5
		C169.5,29.8,182.6,42,181,52.9z"/>
	<path class="st0" d="M587.4,734c-14.6,0-25.3-10.9-25.4-25.5c-0.1-12.8,10.5-25.5,26-25.3c13.9,0.2,24.6,10.7,25,26.4
		C613.2,721.9,600.4,735.5,587.4,734z"/>
	<path class="st1" d="M110.8,299c0.1,2.4,0.1,4.7-0.7,7c-6.9,1-13.7,2.2-20.6,2.9c-3.6,0.4-3.8,3-4.3,5.2c-2,9.5-7.7,14.8-17.1,17.1
		c-10.4,2.6-23.1-6.4-24.1-17.8c-0.8-9.4,2.5-16.7,10.6-21.3c6.6-3.8,13.9-3,20.6,0.2c3.7,1.8,6.7,5,8.4,8.9c0.8,2,1.8,3,4,2.7
		c7-1,14.1-2,21.1-3.1C109.4,300.7,110.1,299.7,110.8,299z"/>
	<path class="st0" d="M666.8,633.9c2.4-1.2,4.8-2.5,7.3-3.7c1.3,4.3,3.4,5.2,7.7,3.1c9.8-4.9,20.9-1.8,26.4,7.6
		c6.2,10.5,4.6,19.2-4.1,27.3c-8,7.4-20.5,6.8-28.1-0.6c-6.5-6.5-7.6-14.5-5-23C673.2,637.4,673.5,637.4,666.8,633.9z"/>
	<path class="st0" d="M455,831.6c-1.3-10.9,10.4-20.5,21.1-20.5c10.7,0,21,10.4,20.8,21.4c-0.1,11.1-10.2,21.3-21.7,20.7
		C463.1,852.5,455,844.4,455,831.6z"/>
	<path class="st4" d="M196,760c0,11-9.8,21-20.5,21c-11.8,0-21.5-9.8-21.5-21.6c0-11.7,9.1-20.4,21.1-20.4
		C187.6,739,196,747.5,196,760z"/>
	<path class="st0" d="M786.1,501c2-9.3,4-18.7,6-28c10.4-7.2,20-6.6,28.2,1.8c7.3,7.4,7.8,18.9,1.3,27.8c-6.6,9-22.1,10.2-30.1,2.5
		C789.9,503.5,788.8,501.2,786.1,501z"/>
	<path class="st0" d="M790.1,408c-3-12.2-6.5-24.3-11-36c2,1.5,3.1-0.2,4.7-1.1c7.4-4.7,15.1-5.7,23-1.5c7.7,4.1,11.3,11.2,11,19.2
		c-0.5,12.5-13.4,22.7-25.2,19.7C791.7,408.1,790.9,408.1,790.1,408z"/>
	<path class="st5" d="M718,214c-1.2-1.9-1.1-4-0.9-6.1c2,2.8,3.9,5.7,6.1,8.4c1.1,1.3,0.8,4.4,3.9,3.3c2.5-0.9,5.7-0.8,5.8-4.7
		c0-1.1,0.4-2.3,0.7-3.4c1.5-5.3,2.3-9.5-4.4-12.6c-5.8-2.7-7.7-11-5.8-17.1c2-6.6,8.2-11.1,15.4-11.2c6.1-0.1,12.3,4.2,14.7,10.2
		c3.4,8.3-2.6,19.3-11.9,21.1c-3.2,0.6-4.2,1.9-4.6,4.7c-0.3,2.1-0.6,4.3-1.3,6.3c-1.2,3.7-1.4,6.5,2,9.6c3.7,3.4,2.5,9.9-1.8,13.2
		c-3.5,2.7-9.2,1.9-12.2-1.6c-0.7-0.9-1.2-1.9-1.8-2.9c-1.3-1.5-1.7-3.2-1.1-5.1c1.1-3.3,0.3-6.2-1.4-8.9
		C718.9,216,718.8,214.8,718,214z"/>
	<path class="st5" d="M698.9,160c-1.3-2-2.6-4-3.9-6c0.9-1.2,0.5-2.5,0.6-3.8c0.4-8.2,0.4-8.2-7.6-8.3c-0.9-0.4-1.6-1-2-2
		c1-1.8-0.8-2.5-1.4-3.7c-1-0.9-1.2-2.2-1.6-3.4c-3.9-9-1.1-17.4,7.1-21.6c7.7-3.9,15.8-1.5,20.6,6.3c4.6,7.5,1.8,18.2-6.4,21.6
		c-4.2,1.7-5,4.4-5.1,7.9C698.9,151.3,698.9,155.7,698.9,160z"/>
	<path class="st5" d="M193.2,640c1.2,1,2.5,2,3.7,3c-0.1,5,0.8,9.1,6.9,9.8c1.3,0.2,2.3,1.2,3.1,2.3c5.4,4.1,8.7,9.2,7.6,16.3
		c-1,6.2-4.7,10.6-10.7,12.6c-7.2,2.4-15.1-0.7-18.8-7.5c-3.7-6.7-2.5-15.9,4.1-19.6c5.4-3.1,5.1-6.8,4.6-11.5
		C193.5,643.6,193.4,641.8,193.2,640z"/>
	<path class="st6" d="M112,546.1c-8.4-5.6-11.3-12.5-8.3-20.2c3.1-8.1,11.9-12.2,20.1-9.3c7.9,2.8,12.2,11.3,9.9,19.4
		c-0.4,1.4-1.1,2.8-1.6,4.2C129.3,547.7,119.2,550.7,112,546.1z"/>
	<path class="st4" d="M103.9,451c-11.4,9-22.8,18.1-34.2,27.1c-2.3,1.8-2.8,3.5-2,6.4c1.6,6.3-1.1,11.6-6.8,14.5
		c-4.1,2.1-10.4,0.9-13.8-2.6c-3.2-3.4-4.1-9.7-1.9-14.5c1.9-4.1,6.7-7.1,12.1-5.9c4.7,1.1,7.6-0.9,10.5-3.5
		c11.1-9.6,22.7-18.7,34.3-27.7C103.3,446.8,104.7,448.6,103.9,451z"/>
	<path class="st6" d="M342.1,125.9c-6.7-1-13.4-2-20.2-3c-6.9-9.1-4.4-18.4,1.6-23.5c5.7-4.9,16.1-3.7,20.3,0.1
		c6.5,5.9,7.3,15.8,2.2,22C344.7,122.9,343.4,124.4,342.1,125.9z"/>
	<path class="st6" d="M772.8,358.9c-4-8.4-9.3-16.1-13.9-24.1c3.2-5.5,7.4-9.5,14.2-8.7c6.5,0.8,12,3.3,14.6,10.2
		c3,7.9-2.1,18.3-10.2,20.6C775.8,357.3,773.6,356.6,772.8,358.9z"/>
	<path class="st4" d="M135.8,429.4c3,4.3,6.4,8.4,8.1,13.6c-1.1,0.6-2.2,0.2-3.3-0.1c-6.4-1.4-12.1-0.4-16.5,4.8
		c-0.8,0.9-1.6,1.7-2.8,1.7c-2.8-1.4-4.8-4.4-8.3-4.1c-2.4-0.8-4.1-2.5-5.9-4.2c3-3.5,0.9-5.8-1.9-8c-0.9-1.4-1-2.8,0.2-4.1
		c0.9-3.3,1.8-6.6,2.7-9.9c2.8-0.9,5.8-0.9,8.7-1.6c2.9-0.6,6.8-0.1,7.7,3.1C126.3,426.5,130.5,428.5,135.8,429.4z"/>
	<path class="st6" d="M121.2,449.4c6.6-8.8,13-10.6,22.7-6.4c1.9,1.3,0.9,2.9,0.5,4.4c-2.1,8.2-4.2,16.4-5.6,24.8
		c-2,1.5-4.2,1.2-6.4,0.8c-0.5-0.2-1-0.6-1.4-0.9C120.5,466.4,118,460.6,121.2,449.4z"/>
	<path class="st4" d="M428,672c1,0.3,2,0.7,3,1c-0.3,2.1-0.9,4.2-0.9,6.3c-0.2,5.4-2.2,10.6,3.1,15.8c4.6,4.5,3.1,10.5-1.1,15.2
		c-3.2,3.6-8.9,4.7-13.8,2.6c-4.1-1.7-7.7-7.4-7.3-12c0.5-5.2,3-9.2,8.2-10.7c2.9-0.8,4.2-2.6,4.6-5.2c0.6-3.7,0.8-7.5,1.1-11.3
		C425.8,672.8,426.8,672.2,428,672z"/>
	<path class="st4" d="M143.8,555.3c1.1,3.9,2.2,7.8,3.3,11.7c3.1,6.3-1.7,10.4-4.3,15c-0.7-2.9-1.8-3.5-4.6-1.7
		c-7.3,4.8-16.7,3.5-22.3-2.6c1.1-2.7,2.7-5.2,2.7-8.3c0-1.9,1.9-3,3.3-4.2c4.2-3.3,8.3-6.6,12.4-9.9
		C139,551.5,139,551.4,143.8,555.3z"/>
	<path class="st7" d="M754.2,160.3c1.3-1.8,0.1-2.8-1-3.8c-2.1-1.9-4.5-3.6-6-5.9c-4.1-5.9-10-2-14.9-3c-1.8-0.4-5.3,7-4.7,9.2
		c0.9,3.5-0.2,6-3.6,7c-3.6,1-5.7-0.9-6.5-4.3c-0.9-3.7,1.8-5.1,4.6-5.9c5.1-1.4,7.5-6.2,5.2-11c-1.8-3.7-1.5-7.4,1.5-10.1
		c3.2-2.9,7.5-3.9,11.4-1.4c3.3,2.1,6,4.9,4.1,9.5c-1,2.5-0.3,4.2,1.8,5.9c3.3,2.5,6.2,5.4,9.3,8.3c1.1,1,2.2,1.1,3.6,1
		c4.1-0.2,6.2,2.1,6.1,6.1c-0.1,3.5-2.7,5-5.8,4.9C755.1,166.7,754.3,163.6,754.2,160.3z"/>
	<path class="st7" d="M221,684.9c3.3-0.2,6.1,0.7,6.8,4.3c0.7,3-1.1,4.8-3.7,6.2c-3.9,2.2-4.5,7.9-1.3,11.2c2.8,3,3.4,6.5,1.9,10.1
		c-1.9,4.7-6,5.8-10.7,5.4c-4.1-1.8-6.9-4.6-6.9-9.4c0-0.6,0-1.4-0.3-1.9c-1-1.8-15.8-7.6-17.9-6.9c-3.6,1.1-6.4,0.2-7.5-3.5
		c-0.9-3,0.7-5.4,3.5-6.2c3.7-1.1,6.4,0.6,6.9,4.4c0.3,2.1,1.4,2.8,2.9,3.5c1.7,0.7,3.4,1.4,5,2.3c4.9,3.1,9.7,4.7,14.3-0.4
		c4-2.2,4-6.2,4.3-10C215.9,689.9,217.5,687.1,221,684.9z"/>
	<path class="st7" d="M754.1,329c-3.4-4.4-6.8-8.8-10.2-13.1c0.3-2.2,1.5-4.1,3.5-4.5c3.9-0.7,5-3.3,5.5-6.6
		c0.8-5.8,4.6-11.3,1.4-17.7c-1.4-2.7,1.3-5,4.1-5.8c2.7-0.8,4.8,0.2,6,2.9c1.4,3.2,0.4,6.5-2.4,7c-4.8,1-4.5,4.3-5.2,7.6
		c-0.5,2.3-1.2,4.5-1.5,6.8c-0.2,1.9-2.1,3.9,0.8,5.7c2.7,1.7,4.5,4.1,8.4,1.8c4-2.3,8.6-3.2,12.9-5c2.9-1.2,6.6-1.4,7.2-6.1
		c0.3-2.1,3.4-3.8,6.2-2.9c2.6,0.8,4.2,3,4,5.7c-0.3,2.8-2.7,5.1-5.2,4.3c-7.4-2.2-12.8,3.2-19.3,4.3c-2.1,0.4-3.9,1.7-6,2.4
		c-2.2,0.8-3.5,1.9-3.4,4.6C761,325,756.9,326.6,754.1,329z"/>
	<path class="st1" d="M59,452.3c0,7.2-4.8,11.7-12.4,11.7c-6.1,0-11.6-6.2-11.6-13c0-6.3,6-11.9,12.8-12
		C53.5,438.9,59,445.4,59,452.3z"/>
	<path class="st0" d="M660,712c-7.7,0-12.1-4.4-12-12c0-7.1,4.8-11.9,11.8-12c7.8-0.1,12.2,4.4,12.2,12.5
		C672,707.8,667.6,712,660,712z"/>
	<path class="st1" d="M42.1,276c-6.9-0.1-11.2-4.6-11.1-11.8c0.1-7.9,4.5-12.3,12.3-12.2c6.4,0.1,11.8,5.7,11.7,12.3
		C54.9,271.7,50.1,276.1,42.1,276z"/>
	<path class="st1" d="M43,91.3c1.1,5.6-4.3,12.1-12.1,12.3C24.2,103.8,19,97.9,19,90.9c0-6.6,5.8-12,12.7-11.9
		C38.5,79.1,43,83.9,43,91.3z"/>
	<path class="st1" d="M39.7,212c-7.4,0-11.7-4.4-11.7-11.7c0.1-7.5,4.7-12.2,11.9-12.3c6.5,0,12.1,5.4,12.1,11.9
		C52,207.7,47.6,212,39.7,212z"/>
	<path class="st0" d="M711,606c4-3,8-6.1,11.9-9.1c0.9,1.4,2.4,0.9,3.6,1.2c6.8,1.4,10.4,6.9,9.4,14c-0.9,6.1-6.1,10.2-12.8,9.9
		c-6.7-0.3-10.8-4.4-11.2-11.3C711.9,609.1,712.5,607.3,711,606z"/>
	<path class="st0" d="M567,652c13.7,0.3,27.4,0.4,41-0.9c-4.9,12.1-10.3,16-22.1,16c-7.3-0.1-12.4-3.8-16.2-9.7
		C568.6,655.6,567.9,653.7,567,652z"/>
	<path class="st7" d="M152.7,195.1c-1-0.2-1.9-0.2-2.6,0.7c-2.6,3.3-6.2,3.8-10.1,3.3c-4.4-1.9-6.9-5-6-10.1
		c0.9-5.4,3.6-8.1,9.5-7.6c2.7,0.2,3.6-0.8,4.4-2.7c1.6-3.6,3.8-7,6.1-10.2c0.8-1.1,2.1-2.3,1.1-4c-1.8-3.1,0.1-5.3,1.9-7.5
		c6.9-1.3,7.9-0.7,8.8,5.9c-0.5,2.2-1.7,4.4-3.8,4.9c-6.9,1.7-7.6,8.7-11.5,12.9c-0.6,0.6-0.9,1.6-0.2,2.3c2.7,2.8,2.5,6.9,4.6,9.9
		C154.6,194.1,153.8,194.7,152.7,195.1z"/>
	<path class="st4" d="M112,546.1c8.1,2.6,14.7,0.6,20-6c1,2.3,3.1,2,5,2c1.7,6.2,1.4,11.6-5.1,15.2c-2.3,1.3-4.4,3.1-6.2,4.9
		c-4.6,4.8-10.5,6.5-16.6,8.1c-1.1-2.9-1.3-5.9-1.1-8.9c0.4-0.6,1-0.7,1.7-0.8c2.1-0.2,4-0.9,4.6-3.1c0.7-2.6-1-4-2.9-5.2
		c-0.6-0.4-1.1-0.7-1.4-1.4C111.3,549.5,113.4,548.5,112,546.1z"/>
	<path class="st1" d="M164.9,163.9c-0.5-6.5-1.7-7.6-7.8-6.8c3.7-1,7.1-2.3,7-7.1c1-0.6,1.9-0.3,2.8,0c5.5,1.9,8.8-1.8,12.2-5.1
		c2.3-0.1,3.1,2.3,4.9,3c0,2.3,1.1,3.9,3,5c0.4,2.6-0.9,5.5,0.9,8c-0.6,0.4-1.3,0.8-1.9,1.2c-4.8,2-8.1,5.9-12,9.1
		C170.8,169,166.3,168.4,164.9,163.9z"/>
	<path class="st8" d="M136.8,490.8c0,0.8,0,1.6,0,2.5c-1,1-2.2,1.6-3.5,1.7c-3,0.2-4.7,1.6-5.9,4.4c-1.1,2.6-3,4.7-6.4,4.7
		c-2.1,0-4.3,0.4-6.4-0.6c-3.6-1.8-5.7-4.6-5.6-8.7c0.1-4.1,2.3-7,6.1-8.3c3.7-1.3,7.6-0.8,9.9,2.7c2,3,4.1,3.5,7,2
		C133.5,489.8,135.1,489.5,136.8,490.8z"/>
	<path class="st9" d="M372.8,131.8c-0.7,1.3-1.5,2.2-3,1c-0.6-4.6-0.6-9.1-6.3-11.3c-3.7-1.4-3.5-9.6-0.5-13
		c3.1-3.4,10.2-3.1,13.6,0.6c3.5,3.8,3.4,10.1-1,12.7C371,124.6,371.5,127.8,372.8,131.8z"/>
	<path class="st10" d="M121,504c2.9-1.9,5.8-3.8,6.2-7.7c0.2-2.3,2.2-2.1,3.8-2.3c1.9-0.3,3.9-0.5,5.8-0.7c0,7.9,0.1,15.8,0.1,23.8
		C127,518.6,121,513.8,121,504z"/>
	<path class="st7" d="M155.1,604.6c0,5.1-4,9.3-9,9.3c-5,0-9.2-4.1-9.2-9.2c0-5.1,4-9.2,9.1-9.3
		C150.9,595.3,155.1,599.5,155.1,604.6z"/>
	<path class="st11" d="M297.2,731.8c-4.9-0.1-9.1-4.6-9-9.4c0.1-4.9,4.6-9.2,9.4-9.1c4.9,0.1,9.1,4.5,9,9.4
		C306.4,727.7,302.1,732,297.2,731.8z"/>
	<path class="st12" d="M785.1,175.1c-0.1,5.6-3.9,9.7-9,9.8c-4.9,0-9.3-5-9.1-10.4c0.2-4.1,5.1-8.4,9.6-8.3
		C781.4,166.2,785.2,170.2,785.1,175.1z"/>
	<path class="st7" d="M164,700c-3.3-1.3-5.6-3.7-7-7c-1-5.7,0.4-9.2,4.5-11.4c3.6-1.9,9.2-1,12,1.9c2.8,2.8,3.7,8.4,2,12.1
		C173.9,699.1,169.4,700.8,164,700z"/>
	<path class="st13" d="M778.2,264.1c0,4.7-4.1,8.6-9.1,8.7c-4.8,0.1-9.1-4-9.1-8.6c0-5.3,3.6-9.7,8-9.6
		C774.3,254.6,778.3,258.3,778.2,264.1z"/>
	<path class="st7" d="M179,145c-3,7.2-7.6,8.7-15,5c-3.6-3.6-4.5-7.8-1.8-12.1c2.4-3.7,6.3-4.9,10.4-3.6
		C177.7,135.9,179.8,139.7,179,145z"/>
	<path class="st14" d="M109.1,570.2c1.7-2.1,3.6-3.9,6.7-3.2c0.5,0.1,1.1,0.2,1.4-0.1c6.5-5.1,13.3-9.9,19.1-15.7
		c1.8-1.8-1-6.2,0.6-9.4c1-1,2-2,3-3c1.3,5.5,2.6,10.9,3.9,16.4c-3.8-2.5-6.7-1.3-9.8,1.6c-3.2,3.1-6.9,5.7-10.4,8.5
		c-2.4,1.9-5.1,3.3-4,7.4c0.6,2.1-1.9,3.6-3.7,4.9C110.3,577.2,109.2,575.9,109.1,570.2z"/>
	<path class="st8" d="M135.8,429.4c-6.5,1.2-10.1-0.9-12-7.1c-0.9-2.9-5.3-4.9-8.4-3.2c-2.7,1.5-5,1.3-7.5,0
		c-1.4-2.3-2.3-4.7-0.4-7.2c1.9-2.5,4.5-2.2,7.1-1.7c0.6,0.2,1.3,0.4,1.8,0.8c5.5,5,5.5,5.1,11,1.1
		C130.2,417.8,133,423.6,135.8,429.4z"/>
	<path class="st15" d="M164,700c4.6,0.3,8.6-0.9,10.7-5.5c2.1-4.7-0.4-10.6-5.1-12.3c-4.9-1.8-10.3,0.8-11.9,5.9
		c-0.5,1.5-0.4,3.2-0.6,4.9c-3.6-7.9,1.7-14.1,7.2-16.2c1.9-0.7,4.4-0.4,5.5-2.8c1.5,1.4,3.1,2.6,5.2,3c0.4,3,3.1,4.5,4.2,7.2
		c1.9,5,0.7,9.3-2.8,12.8C173.1,700.3,169,702.6,164,700z"/>
	<path class="st16" d="M307.3,121.9c-4.7,1.8-9.6,1.2-14.5,1c3.4-1.9,7.2,0.3,10.8-1.2c-0.9-5-5.5-8.1-7.3-12.7
		c-0.6-1.5-2.1-0.2-3.1-0.3c-3.1-0.6-5.7-1.9-5.3-5.8c0.4-3.7,3.3-4.8,6-4.5c2.9,0.3,5.5,2.2,4.5,5.8c-0.7,2.5,0.3,4.1,1.5,6
		C302.4,114,304.8,117.9,307.3,121.9z"/>
	<path class="st17" d="M186.8,715.7c0.9,1.6,2.6,1.1,4,1.4c3.6,0.9,6.3,4.8,5,7.8c-1.4,3-3.6,5.8-7.6,4.9c-3.5-0.8-5.9-5.1-4.7-8.5
		c0.5-1.6,1.6-3-0.5-4.2C183.9,715.7,185.3,715.4,186.8,715.7z"/>
	<path class="st1" d="M181.7,18c2.9,0.2,5.1,2.1,5.3,6.2c0.1,4.2-2.1,6.8-6,6.8c-3.3,0-6.9-3.3-7-6.4C174,21.6,177.5,18.1,181.7,18z
		"/>
	<path class="st18" d="M546,733.3c0.1,3.8-2.8,6.8-6.5,6.7c-3.9-0.2-6.2-2.3-6.4-6.2c-0.2-3.7,2.7-6.7,6.5-6.7
		C543.1,727,545.9,729.7,546,733.3z"/>
	<path class="st19" d="M133,134c-2.8-0.4-5-2.3-5-6.3c0-4.2,2.3-6.7,6.2-6.6c3.3,0.1,6.9,3.5,6.8,6.6C140.9,130.7,137.3,134,133,134
		z"/>
	<path class="st4" d="M267,768.6c-0.1,3.3-1.9,5.9-6,6.4c-3.1,0.3-6.9-3.2-7-6.4c-0.1-3.7,2.6-6.4,6.5-6.6
		C264.3,761.8,266.9,764.2,267,768.6z"/>
	<path class="st17" d="M216.9,807c2.8,0.2,5.1,2.1,5.1,6.2c0,4.1-2.1,6.5-6.3,6.8c-3.1,0.2-6.7-3.5-6.7-6.6
		C209.1,809.6,211.9,807.1,216.9,807z"/>
	<path class="st2" d="M833.7,394c-4.2-0.1-7.8-3.5-7.7-6.6c0-3.1,3.6-6.4,7-6.4c3.8,0,6.1,2.6,6,6.8
		C838.9,391.8,836.7,393.7,833.7,394z"/>
	<path class="st4" d="M87,519c2.9,0.5,5.4,2.5,5.9,6.2c0.6,3.6-2.6,7-6.3,6.8c-3.5-0.2-6.5-1.5-6.6-5.9C79.9,522,82.4,519.2,87,519z
		"/>
	<path class="st19" d="M43.4,332c3.7,0.2,5.9,3,5.6,7.2c-0.3,4.2-3.4,5.4-6.7,5.7c-2.9,0.3-6.4-4.1-6.2-7.1
		C36.2,334.3,39.5,331.8,43.4,332z"/>
	<path class="st4" d="M426.1,856c-3.7,0-6.2-2.5-6.1-6.3c0.1-3.9,2.1-6.3,6-6.6c3.2-0.2,7,3.6,6.9,6.6
		C432.9,853.4,430.1,856,426.1,856z"/>
	<path class="st1" d="M123.6,99c-3.6-0.2-5.9-3-5.6-6.8c0.4-3.9,2.6-6,6.5-6.2c3.1-0.1,6.7,3.9,6.5,6.9
		C130.7,96.1,126.9,99.2,123.6,99z"/>
	<path class="st17" d="M45,510.9c0.1,3.2-3.6,7.4-6.5,6.9c-3.4-0.6-6.2-2.4-6.5-6.4c-0.3-3.9,2.3-6.4,6.5-6.4
		C42.5,505,44.9,507.2,45,510.9z"/>
	<path class="st1" d="M31.1,170c-4.7,0.1-7.9-2.6-8.1-6.1c-0.2-2.9,3.5-6.8,6.7-6.7c3.9,0.1,6,2.5,6.2,6.4
		C36.2,167.5,34,169.5,31.1,170z"/>
	<path class="st2" d="M439,787.7c0-3.8,1.6-6.3,5.7-6.6c3.7-0.3,7.2,2.7,7.2,6c0.1,3.1-3.5,6.8-6.7,6.9
		C441.8,794.1,439.1,791.3,439,787.7z"/>
	<path class="st19" d="M97.8,349c-5.1-0.1-8.1-2.8-7.8-6.4c0.3-3.7,2.7-6.1,6.3-6.5c3.3-0.4,6.8,3.7,6.6,7.3
		C102.7,347.1,100.4,348.8,97.8,349z"/>
	<path class="st19" d="M14,371c-2.6-0.4-4.9-2.1-5-5.9c-0.1-4.2,2.4-7,6-7c3.4,0,7.1,3.8,7,7.1C21.8,367.8,18,371,14,371z"/>
	<path class="st19" d="M26,128.9c-0.6,3-2.4,5.1-6.3,5c-3.3-0.1-6.9-3.6-6.7-6.7c0.1-3.1,4-6.7,7.1-6.2
		C24.3,121.6,26,124.3,26,128.9z"/>
	<path class="st2" d="M532.4,819c4.5-0.2,6.2,2.5,6.5,6.2c0.3,3.2-3.7,6.8-6.8,6.8c-2.9,0-6.2-4-6.1-7.3
		C526.2,820.4,528.7,818.9,532.4,819z"/>
	<path class="st19" d="M120.9,57c-3.6,0-6.1-2.9-5.9-7.1c0.1-3.7,2.1-5.8,5.9-5.9c3.2-0.1,7,3.5,7,6.5C127.9,53.5,124.1,57,120.9,57
		z"/>
	<path class="st4" d="M334.1,788.6c-0.9,3.6-2,6.6-6.4,6.4c-4-0.2-6.7-2.8-6.7-6.5c0-3.1,3.9-7,6.8-6.5
		C331.5,782.7,333.5,785.2,334.1,788.6z"/>
	<path class="st0" d="M624,675.3c0,2.6-2,4.7-6.1,4.7c-4,0-6.1-2.4-6.8-5.9c-0.5-3,3.4-6.8,6.5-7C620.9,666.9,624,670.2,624,675.3z"
		/>
	<path class="st19" d="M101.1,285c-2.6-0.3-4.9-2-5-5.8c-0.2-3.5,3.5-7.6,6.7-7.1c3.6,0.5,6,2.8,6.2,6.5
		C109.1,282.1,105.8,285,101.1,285z"/>
	<path class="st2" d="M821,433c-5,0-8.1-2.7-8-6.2c0.1-3.2,3.8-7.1,6.8-6.7c3.6,0.5,6,2.6,6.1,6.6C826.1,430.7,823.8,432.6,821,433z
		"/>
	<path class="st19" d="M191.2,86c-2.7-0.2-4.9-1.9-5.2-5.7c-0.3-3.5,3.2-7.6,6.5-7.3c3.7,0.4,6,2.7,6.4,6.3
		C199.3,82.4,195.5,85.9,191.2,86z"/>
	<path class="st4" d="M396,699.6c-0.2,2.9-2,5.2-6,5.4c-3.1,0.1-6.9-3.5-6.9-6.5c0-2.8,3.7-6.5,6.4-6.5
		C393.2,692,395.9,694.7,396,699.6z"/>
	<path class="st1" d="M20.9,293c4.4-0.5,6.8,2,6.9,5.9c0.1,3.5-1.9,6.2-6.2,6.1c-4.5-0.1-6.7-1.9-6.6-6
		C15.1,295.2,16.4,292.5,20.9,293z"/>
	<path class="st4" d="M89.2,571.1c-3.9-0.4-6.1-2.3-6.1-6.3c0-3.1,3.8-6.8,6.7-6.7c3,0.2,6.4,4,6.2,7.3
		C95.8,569.7,92.5,570.5,89.2,571.1z"/>
	<path class="st0" d="M622,746.3c0.1-2.7,2.4-4.5,6.4-4.3c3.9,0.2,6.3,2.2,6.4,6.2c0.1,3.3-3.7,6.7-7,6.5
		C625.1,754.5,621.9,750.9,622,746.3z"/>
	<path class="st1" d="M84.1,174c-0.5,3.8-2.4,6-6.5,6c-4.2,0-6.7-2.3-6.7-6.2c0.1-3.5,3.1-6,7.2-5.8C82,168.2,83.7,170.4,84.1,174z"
		/>
	<path class="st4" d="M146.9,727c2.8,0.3,5,2.3,5.1,6.3c0,3.9-2.5,6.8-6.3,6.6c-4-0.1-5.8-2.6-5.7-6.6
		C140.1,729.5,142.3,727,146.9,727z"/>
	<path class="st1" d="M149,12.4c-0.1,3.9-1.8,6.3-5.8,6.5c-3.7,0.2-6.3-2.4-6.2-6.2c0.1-3.9,2-6.6,5.9-6.6
		C146.5,6.2,149.2,8.2,149,12.4z"/>
	<path class="st0" d="M781.9,600c-3.7-0.1-5.8-1.9-5.9-5.8c-0.1-4.1,1.9-6.2,6-6.2c4.2,0,6.1,2.2,6,6.3
		C787.9,598.2,785.8,600,781.9,600z"/>
	<path class="st14" d="M721,280.1c0.1-1.5,0.1-2.9,0.2-4.4c0.6-1.2,0.6-2.7,1.7-3.7c1.8-4.1,4.8-4.8,8.5-2.9c3.6,1.8,3.7,4.9,2,8
		c-1.8,3.4-5,4.1-8,2C723.1,277.4,722.3,278.9,721,280.1z"/>
	<path class="st1" d="M147.9,158.8c0.5,2.8,3.9,5.2,0.5,8.4c-2.2,2.1-4.5,3.6-7.4,2.5c-2.6-1-3.9-3.1-4-6.1c-0.1-3.6,1.8-5,4.9-5.6
		C143.7,159.3,145.8,159.3,147.9,158.8z"/>
	<path class="st4" d="M307.1,696.9c0.9,0.7,1.3,1.8,0.8,2.7c-1.9,3.9,0.2,6.2,3.2,8.2c-1.8,3-4.6,4.1-7.6,2.7
		c-2.3-1.1-4.6-2.9-4.4-6c0.2-3.4,2.6-5.1,5.5-6.3C305.4,697.7,306.5,697.9,307.1,696.9z"/>
	<path class="st14" d="M142.8,582c-0.3-2.9,0-5.4,3.1-7.1c3.6-2,0.1-5.4,1.2-8c2.3,5,4.5,10.1,6.8,15.1
		C147.9,586.3,146.9,586.3,142.8,582z"/>
	<path class="st20" d="M100.1,403.6c-3.6-5.9-2-9,4.9-9.7c3,1.6,5.1,3.9,3.4,7.5C106.6,405.1,103.5,405.1,100.1,403.6z"/>
	<path class="st21" d="M110,550.9c4,0.5,6.7,2.5,5.7,6.8c-0.9,3.8-4,4.9-7.7,3.6C103.6,556.4,104.1,553.9,110,550.9z"/>
	<path class="st22" d="M103.2,473.1c2.2-3.2,4.8-5.5,8.6-2.6c3.5,2.6,2.6,5.7,0.2,8.7c-1.9,2.7-4.5,2.6-6.8,0.9
		C103,478.3,101,476.2,103.2,473.1z"/>
	<path class="st22" d="M107,441c2.7,0.4,4.5,2,5.9,4.2c-0.7,6.4-3,7.9-9,5.8c-1.3-1.8-2.1-3.7-1.8-6
		C103.2,443.1,104.9,441.8,107,441z"/>
	<path class="st14" d="M775,205.6c-0.6,3.2-1.6,6-5.4,5.8c-3.4-0.1-5.1-2.1-4.9-5.5c0.2-3.2,1.6-5.7,5-5.6
		C772.8,200.4,774.9,202.1,775,205.6z"/>
	<path class="st23" d="M157.8,660c0.1-3.5,2.1-5.5,5.2-5.5c3.2-0.1,5.3,2,5.3,5.3c0,3.2-1.8,5.3-5.2,5.3
		C159.9,665.1,158.1,663.1,157.8,660z"/>
	<path class="st24" d="M309.5,95.9c3.5,0.2,5.2,2.7,5.1,5.6c0,3-2.4,5.3-5.5,5.4c-3.4,0.1-5.1-2.6-4.9-5.6
		C304.4,98.3,305.7,95.6,309.5,95.9z"/>
	<path class="st24" d="M789,315.4c2.1,0.5,4.4,2.2,4.3,5.4c-0.1,3.4-2.6,5-5.6,5.1c-3.4,0-4.8-2.5-5-5.6
		C782.5,316.4,785.2,315.6,789,315.4z"/>
	<path class="st16" d="M745.8,267.4c-3.7,0.1-5.3-2.4-5.5-5.3c-0.2-3.4,2.5-4.9,5.6-5c3.2-0.1,4.8,2.2,5.1,5.1
		C751.3,265.7,748.7,266.8,745.8,267.4z"/>
	<path class="st4" d="M103.2,473.1c0.6,6.4,2.8,7.8,8.8,6c-0.4,4-2.7,6.4-6.5,6.8c-3.2,0.3-5.3-2.3-6.2-4.9
		C98,477.5,99.7,474.6,103.2,473.1z"/>
	<path class="st25" d="M201,137.8c3.4,0.3,5.3,1.9,5.2,5.3c-0.1,3.2-2.1,4.8-5.1,4.8c-3.4,0-5.2-1.9-5.1-5.3
		C196.1,139.5,198,138,201,137.8z"/>
	<path class="st26" d="M127.4,412c-1.2,2.2-1.9,5.1-5.1,4.9c-2.8-0.2-5.4-0.9-5.8-4.6c-0.1-0.8-1.2-1.5-1.8-2.3
		c3.6-0.2,6.7-3,10.6-2.2C126,409.3,126.7,410.7,127.4,412z"/>
	<path class="st27" d="M267,126.1c-6,1.3-11.9,2.6-17.9,3.9c2.4-7.3,7.9-9.4,14.4-5.5C264.6,125.2,265.5,126.2,267,126.1z"/>
	<path class="st28" d="M396.9,106.2c-2.6,2.3-5.2,4.5-7.8,6.8c-3-2.4-4.9-5.2-1.9-8.9C389.3,101.6,393.3,102.5,396.9,106.2z"/>
	<path class="st29" d="M207,655.1c-1.7-0.5-3.4-1.2-5.1-1.6c-5.6-1.3-7-4.2-4.9-10.5c3.4,3.2,6.8,6.4,10.1,9.7
		C207,653.5,207,654.3,207,655.1z"/>
	<path class="st14" d="M735,307c-3-2.6-6-5.2-9-7.8c0.9-0.4,1.7-0.9,2.7-1.2c2.8-0.9,5.4-1.5,7.5,1.5
		C738.3,302.5,737.1,304.8,735,307z"/>
	<path class="st30" d="M131,472c0.4,0,0.7,0.1,1.1,0.1c1.4,0.6,2.9,0.3,4.3,0.3c2.2,0.1,2.3,1.3,1.8,3c-0.1,1.2-0.1,2.4-0.2,3.5
		c-2,0.9-4.7,0.5-5.8,3.1c-0.4,0.2-0.8,0.2-1.2-0.2C131,478.7,131,475.4,131,472z"/>
	<path class="st4" d="M131,482c0.3,0,0.5,0,0.8,0c2.9,0.4,7-0.4,5.4,4.9c-0.1,1.3-0.3,2.6-0.4,3.8c-1.6,0.1-3.2,0.2-4.8,0.3
		C132.5,487.9,131.3,485,131,482z"/>
	<path class="st31" d="M721.1,263.1c0-7.5,0-15,0-22.4c3.1,0.3,5.5,2,2.9,4.6c-2.7,2.6-2.2,5.2-2.2,8.1c0,3.2,0,6.3,0,9.5
		C721.8,263.3,721.5,263.4,721.1,263.1z"/>
	<path class="st32" d="M719.8,216.1c2.4,3.1,4.5,6,1.8,10.2c-0.7,1.1,0.2,3.2,0.3,4.8c-0.3,0.4-0.7,0.8-1,1.3c-0.7-4.7-1.3-9.3-2-14
		C718.7,217.3,717.9,216.1,719.8,216.1z"/>
	<path class="st33" d="M218.3,693.9c2.4,3.6-0.1,9.3-4.3,10C215.6,700.7,214.7,696.3,218.3,693.9z"/>
	<path class="st34" d="M284,92c1.7,0.1,2.9,0.9,2.8,2.8c-0.1,1.8-1,3.3-3.1,3.2c-1.9-0.1-2.9-1.5-2.7-3.4
		C281.1,92.6,282.2,91.9,284,92z"/>
	<path class="st35" d="M769.9,147.8c-0.4,1.9-1.8,2.8-3.5,2.6c-1.7-0.1-2.6-1.3-2.4-3.1c0.2-1.7,1.2-2.8,2.8-2.8
		C768.5,144.7,769.6,145.9,769.9,147.8z"/>
	<path class="st36" d="M278.2,115.2c-0.1,1.8-1,2.8-2.8,2.7c-2-0.1-3.1-1.5-3-3.3c0-1.6,1.1-2.7,3-2.6
		C277.3,112.2,278.3,113.2,278.2,115.2z"/>
	<path class="st37" d="M147.9,158.8c-2.5,3.1-4.6,3.4-6.1-0.8c0.5-1.7,1.4-3.2,3.4-2.9C147,155.4,147.7,157.1,147.9,158.8z"/>
	<path class="st38" d="M175,677c-3.4,1.8-5,0.7-5.2-3c1-1.3,2.2-2.5,4-1.5C175.8,673.5,175.8,675.2,175,677z"/>
	<path class="st38" d="M186.8,715.7c-1.1,1-2.3,1.6-3.8,1.5c-1.3-1.1-2.6-2.3-1.4-4.2c0.6-1,1.6-1.8,2.9-1.5
		C186.5,712,187.2,713.6,186.8,715.7z"/>
	<path class="st39" d="M108.8,509.9c-1.6-0.2-2.8-1-2.9-2.7c-0.1-1.8,0.9-2.9,2.6-3c1.7-0.1,2.9,1,3,2.7
		C111.6,508.5,110.5,509.5,108.8,509.9z"/>
	<path class="st40" d="M802.5,296.3c-0.2,2.2-1.1,3.6-3,3.5c-1.6-0.1-2.5-1.3-2.4-3.1c0.1-1.7,1-2.8,2.7-2.8
		C801.5,293.9,802.4,294.9,802.5,296.3z"/>
	<path class="st41" d="M182.5,128.9c1.7,0,3,0.9,3.1,2.5c0.1,1.6-1.1,2.6-2.8,2.7c-1.7,0-2.9-0.6-3-2.5
		C179.8,129.8,180.7,128.9,182.5,128.9z"/>
	<path class="st42" d="M358.7,101.4c1.9,0.4,3.2,1.4,3.2,3.2c0,1.8-1.4,2.4-3.1,2.3c-1.7,0-2.9-0.7-2.7-2.6
		C356.2,102.8,357,101.7,358.7,101.4z"/>
	<path class="st43" d="M105.3,429c0.8,1.4,0.6,2.7-0.2,4.1c-1.8,1.1-3.4,1-4.6-0.9c-0.6-0.9-0.6-1.9,0.1-2.7
		C102,427.5,103.6,427.7,105.3,429z"/>
	<path class="st34" d="M750,242.9c-0.3,1.5-1.3,2.8-2.8,2.8c-1.8-0.1-3-1.3-2.7-3.3c0.3-1.6,1.2-2.7,3-2.5
		C749.3,240,750,241.2,750,242.9z"/>
	<path class="st44" d="M95.8,503.8c-0.3,1.6-1.2,2.8-2.9,2.9c-1.6,0-2.8-1.1-2.8-2.8c-0.1-1.7,1-2.8,2.7-2.8
		C94.6,500.9,95.4,502.2,95.8,503.8z"/>
	<path class="st45" d="M788.3,267.4c-0.2,1.8-0.6,3.5-2.7,3.4c-1.4-0.1-2.5-1-2.5-2.6c0-1.8,0.7-3.3,2.8-3.3
		C787.5,264.9,788.3,265.8,788.3,267.4z"/>
	<path class="st34" d="M768.1,188.3c0,1.9-1,2.9-2.7,2.9c-1.9,0-3.1-1.2-3-3.1c0-1.7,1.5-2.6,3-2.6
		C767.1,185.5,768,186.6,768.1,188.3z"/>
	<path class="st38" d="M277,733.1c-2,0.1-3.6-0.4-4-2.6c-0.3-1.5,0.7-2.5,2-3c2.3-0.8,3.1,1.1,4.1,2.5
		C278.4,731,277.7,732,277,733.1z"/>
	<path class="st44" d="M102,489.7c-0.2,1.7-1.1,2.9-2.7,3c-1.7,0.1-2.9-1-3-2.7c-0.1-1.7,1-2.8,2.7-2.9
		C100.8,486.9,101.7,488,102,489.7z"/>
	<path class="st37" d="M128.8,608.8c-1.6-0.4-2.8-1.4-2.7-3.1c0.1-1.7,1.2-2.8,2.9-2.7c1.7,0.1,2.8,1.3,2.7,2.9
		C131.7,607.7,130.5,608.6,128.8,608.8z"/>
	<path class="st46" d="M221.8,663.1c1.7,1.2,3.4,2.4,5.2,3.5c-1.5,1.2-2.2,4.2-5.1,2.5C218.7,667.3,221.6,665.2,221.8,663.1z"/>
	<path class="st47" d="M244,678c-2.9-1.4-6.4-0.9-8.9-3.2c-0.6-1.3-1.3-2.6-1.9-3.9c3.7,2,7.3,3.9,11,5.9
		C244.4,677.3,244.4,677.7,244,678z"/>
	<path class="st48" d="M366,88.5c-0.1,2.1-0.9,3.4-2.6,3.4c-1.7,0-2.6-1.2-2.6-2.9c0-1.7,0.9-2.9,2.6-2.9
		C365.3,86,365.8,87.4,366,88.5z"/>
	<path class="st49" d="M767.7,304c-1.9-0.2-2.8-1.3-2.8-3c0-1.8,1-2.8,2.7-2.9c1.9,0,2.6,1.3,2.6,3
		C770.3,302.9,769.2,303.8,767.7,304z"/>
	<path class="st50" d="M96.2,416.9c-0.5-1.7-0.4-3.3,0.9-4.6c2.6-0.4,4.5,0.4,4,3.2C100.5,418.6,98.3,418.2,96.2,416.9z"/>
	<path class="st51" d="M286,705.2c-2.1,1.1-4,0.8-4.6-1.5c-0.8-2.8,1.3-3.6,3.6-3.7C286.9,701.4,287.6,703.1,286,705.2z"/>
	<path class="st51" d="M322.4,722.2c-2,0-3.1-1-3.2-2.6c-0.1-1.7,1-2.8,2.7-2.9c1.7-0.1,2.9,0.9,3,2.6
		C325,721,323.8,721.9,322.4,722.2z"/>
	<path class="st36" d="M130.5,588.8c-0.4,1.7-1.3,2.9-3,2.8c-1.6-0.2-2.7-1.2-2.6-3c0.1-1.7,1.2-2.7,2.9-2.6
		C129.6,586.1,130.4,587.3,130.5,588.8z"/>
	<path class="st52" d="M348.6,88.6c1.9,0.2,2.8,1.3,2.6,3c-0.1,1.5-1,2.4-2.6,2.3c-1.7-0.1-2.8-0.9-2.8-2.7
		C345.8,89.4,347.1,88.7,348.6,88.6z"/>
	<path class="st53" d="M379.6,96.4c-0.3,1.8-1.1,3.2-2.8,3.2c-1.7,0-2.6-1.3-2.8-2.9c-0.1-1.7,0.9-2.5,2.4-2.6
		C378.2,93.9,379.1,95,379.6,96.4z"/>
	<path class="st37" d="M749.6,220.7c-1.4-0.5-3.1-0.8-2.8-2.9c0.3-1.6,1.2-2.9,2.9-2.7c1.6,0.2,2.5,1.4,2.4,3.2
		C751.9,219.8,751.2,220.8,749.6,220.7z"/>
	<path class="st34" d="M109.7,582.5c-0.5,1.6-1.4,2.8-3.2,2.6c-1.7-0.2-2.7-1.3-2.5-3.1c0.2-1.5,1.3-2.3,2.8-2.3
		C108.6,579.8,109.5,580.9,109.7,582.5z"/>
	<path class="st41" d="M258.3,111.4c1.5,0.3,2.5,1.3,2.6,3c0.1,1.9-1,2.7-2.7,2.7c-1.9,0.1-2.8-1-2.8-2.7
		C255.5,112.8,256.6,111.8,258.3,111.4z"/>
	<path class="st54" d="M719.7,142.5c-0.5,1.4-0.8,3.2-2.7,3.2c-1.6,0-2.9-1-2.8-2.8c0.1-1.3,0.7-2.8,2.3-2.8
		C717.9,140.2,719.4,140.7,719.7,142.5z"/>
	<path class="st55" d="M742,162.9c-1.3-0.1-2.8-0.7-2.9-2.5c-0.2-1.9,1.2-2.6,2.8-2.7c1.8-0.1,2.8,1.1,2.9,2.7
		C744.9,162.1,743.9,162.9,742,162.9z"/>
	<path class="st56" d="M687,104.5c-0.3,1.8-1.4,2.6-3.1,2.5c-1.8-0.1-2.6-1.5-2.6-3.1c0-1.7,1.3-2.1,2.8-2
		C685.7,102,686.9,102.5,687,104.5z"/>
	<path class="st45" d="M742.4,284.6c2.3,0.1,3.2,1.4,3.2,2.9c0,1.6-1.6,2.2-2.9,2.2c-1.6,0-2.8-1.1-2.7-2.9
		C740.1,285.1,741.5,284.8,742.4,284.6z"/>
	<path class="st57" d="M156.4,679.3c-0.2,1.6-0.9,2.8-2.7,2.8c-1.8,0-2.8-1-2.8-2.7c0-1.5,1-2.4,2.4-2.6
		C155.1,676.6,156.1,677.6,156.4,679.3z"/>
	<path class="st58" d="M178.8,639.1c1.7,0.2,2.8,1.1,2.9,2.8c0.1,1.7-1,2.8-2.7,2.9c-1.7,0.1-2.8-1.1-2.9-2.7
		C176.1,640.4,177.3,639.5,178.8,639.1z"/>
	<path class="st58" d="M781.4,281.8c1.8,0,2.8,1,2.8,2.7c0,1.5-0.7,2.6-2.4,2.4c-1.7-0.1-3-0.9-3-2.7
		C778.8,282.7,779.9,281.9,781.4,281.8z"/>
	<path class="st23" d="M206.4,694.4c-0.1,1.8-1,2.9-2.7,3c-1.7,0-2.8-1-2.8-2.8c0-1.6,0.9-2.5,2.4-2.6
		C205.1,691.8,206,692.9,206.4,694.4z"/>
	<path class="st55" d="M734.1,255.2c0,2-1.1,2.6-2.6,2.8c-1.9,0.3-2.9-1-3-2.5c-0.1-1.3,1-2.4,2.6-2.5
		C732.9,252.8,733.7,253.9,734.1,255.2z"/>
	<path class="st35" d="M714.7,178c2,0.3,2.6,1.6,2.4,3.2c-0.2,1.6-1.4,2.2-2.8,2c-1.3-0.2-2.6-0.9-2.4-2.6
		C712.1,179,713.1,178.1,714.7,178z"/>
	<path class="st36" d="M187,153c-1.7,0.4-3.3,0.7-4.3-1.1c-1-1.8,0.6-2.6,1.3-3.8C187.4,148.2,189.2,149.4,187,153z"/>
	<path class="st59" d="M789.5,358.2c1.3,0.3,2.5,0.8,2.6,2.5c0,1.8-1.1,3-2.6,2.9c-1.5,0-2.7-1.1-2.6-3
		C786.9,359,788.1,358.5,789.5,358.2z"/>
	<path class="st20" d="M99.4,518.2c-0.2,1.7-1,2.9-2.8,2.9c-1.5,0-2.5-0.9-2.6-2.4c-0.1-1.8,1-2.8,2.7-2.8
		C98.3,515.7,99.1,516.7,99.4,518.2z"/>
	<path class="st55" d="M787.8,190c0.1,1.8-1.3,2.3-2.5,2.6c-1.8,0.5-2.8-0.8-3.1-2.3c-0.4-1.6,0.9-2.3,2.3-2.6
		C786.2,187.5,787.2,188.5,787.8,190z"/>
	<path class="st60" d="M172,614c1.3,1.9,2.7,3.9,4,5.8c-1.6,0.6-3.2,1.8-4.9-0.1C169,617.4,172.1,616,172,614z"/>
	<path class="st48" d="M357,129c-1.7-0.4-3.5-0.8-5.2-1.2c0.4-1.8,1.4-3.1,3.3-2.7C357.1,125.6,357.2,127.3,357,129z"/>
	<path class="st61" d="M721.1,263.1c0.2-0.1,0.5-0.2,0.7-0.3c1,3-0.9,6.2,1.1,9.1c0.1,1.6-0.5,2.8-1.7,3.7
		C721.2,271.5,721.1,267.3,721.1,263.1z"/>
	<path class="st62" d="M683.1,132.9c0.7,1,1.3,2,2,3.1c0.5,0.9-0.1,0.9-0.7,1c-0.7-1-1.5-2-2.2-3
		C682.4,133.6,682.7,133.3,683.1,132.9z"/>
	<path class="st5" d="M244,678c0-0.4,0.1-0.8,0.1-1.2c1,0.2,2.2-0.1,2.9,1c2.6,4.7,3,10.2,4.8,15.2c0.6,1.7,0.5,3.8,3.1,3.8
		c2.4,0,4-1.1,5-3.4c1.2-2.9,1.8-6.1,4.1-8.5c1.1,0.4,2.1,0.7,3.2,1.1c-2.2,3.2-2.9,7-4.6,10.4c-1.6,3.3,1.6,3.1,2.9,4
		c7.8,5.2,9.8,15.3,4.4,22.7c-5.3,7.3-15.4,8.7-22.5,3.2c-7.9-6.1-8.3-17.7-0.5-24.3c2.4-2.1,2.5-3.7,1.8-6.3
		C247,690,245.5,684,244,678z"/>
	<path class="st63" d="M164.9,163.9c2.4,3.1,7.1,3.4,9.1,7c0.3,0.2,0.5,0.5,0.4,0.7c-0.1,0.2-0.2,0.4-0.3,0.4
		c-2.6,3.4-5.5,6.5-9,8.9c-1.1-0.5-1.5-2-3-1.9c-0.9,1.8,0.8,2.6,1.1,3.9c-2.7,3.3-5.4,6.7-8.2,10c-2.8,0-2.2-2.6-3.2-4
		c-4.7-6.4-1.1-11,2.4-16c1.9-2.7,2.8-6.1,7.2-5.9C163.1,167.2,163.4,164.8,164.9,163.9z"/>
	<path class="st64" d="M516,641.1c-0.9,1.1-2.1,1.1-3.2,0.8c-11.6-3.4-23.4-5.4-35.4-7.1c-0.6-0.1-1-0.7-1.5-1.1
		c6.8-8.9,6.7-8.8,16.3-3.9C500,633.7,508.1,637.3,516,641.1z"/>
	<path class="st10" d="M264,685c-0.5,4-2.6,7.5-3.9,11.2c-1.2,3.4-4.3,1.5-6.5,2.3c-2.1,0.8-2.1-1.6-2.4-2.9
		c-1.3-5.9-4.1-11.5-4.2-17.7C252.7,680.3,258.3,682.7,264,685z"/>
	<path class="st7" d="M125.2,241.9c-1-3.1-2.9-5.9-3.2-9.2c-0.7-8.3,4.2-17.6,17-17.7C133.6,223.6,128.9,232.5,125.2,241.9z"/>
	<path class="st65" d="M329,703c-5.8,1.5-11.1,1.7-13.7-5.2c0.9-2.2,2.5-1,3.8-0.9c2,0.1,3.9,0.2,5.9,0.3
		C331.4,698,331.4,698,329,703z"/>
	<path class="st66" d="M688,142c2.4-3.4,5.5-1.1,8-0.6c2,0.4,1.1,3.2,0.9,4.8c-0.3,2.6,1.7,5.9-1.9,7.8C692.7,150,690.4,146,688,142
		z"/>
	<path class="st67" d="M137.2,486.9c-0.6-1.3,0.9-4.3-2.8-3.2c-1,0.3-2-0.9-2.7-1.8c0-5.2,3.3-3.6,6.2-3
		C137.9,481.7,138.7,484.4,137.2,486.9z"/>
	<path class="st68" d="M140,213c-3.5-5.4-2.4-7.1,5.3-7.9C143.5,207.7,141.7,210.4,140,213z"/>
	<path class="st69" d="M121.3,252c-0.3-0.4-0.6-0.9-1-1c-1.8-0.5-3.8-0.7-3.8-3.2c0-1.2,0.6-2.2,1.8-2.7c2.2-0.8,3.4,0.7,4.6,2
		C123.2,248.9,122.5,250.5,121.3,252z"/>
	<path class="st70" d="M174,172c0-0.4,0-0.7,0-1.1c2.6-4.9,6.3-8.2,12-8.8C182.3,165.8,178.7,169.5,174,172z"/>
	<path class="st55" d="M163.1,183c-2.1-0.4-3.6-1.4-3.3-3.9c0.2-1.6,1.3-2.2,2.8-2c2.5,0.2,2.6,2,2.4,3.9
		C164.7,181.9,164.1,182.6,163.1,183z"/>
	<path class="st71" d="M329,703c1.2-3.7-0.7-5.2-4-5.8c2.6,0.7,6.8-2.6,7.1,3.4C332.4,703.9,330.8,703.1,329,703z"/>
	<path class="st72" d="M319.1,696.8c-1.2,0.6-2.8-0.2-3.8,0.9c-1.2-0.3-2.4-0.6-3.6-1C314.2,696,316.7,695.7,319.1,696.8z"/>
	<path class="st73" d="M138.1,475.5c-0.3-4.2-4.6-1.3-6.1-3.3c2.3,0,4.5,0,6.8,0C138.9,473.3,138.9,474.5,138.1,475.5z"/>
	<path class="st62" d="M684.3,136.9c0.2-0.3,0.5-0.6,0.7-1c1,1.2,4.8,1.6,1,4C685.5,139,684.9,138,684.3,136.9z"/>
	<path class="st74" d="M719.8,216.1c-0.3,0.7-0.7,1.5-1,2.2c-0.9-1.3-1-2.8-0.8-4.3C719.3,214.1,719.6,215.1,719.8,216.1z"/>
	<path class="st41" d="M235.7,703.6c-0.4,1.7-1.3,2.7-3.1,2.6c-1.5-0.1-2.5-1-2.6-2.5c-0.1-1.8,1-2.8,2.7-2.8
		C234.6,700.8,235.3,702,235.7,703.6z"/>
	<path class="st75" d="M791.2,375.5c-0.3,2.2-1,3.5-2.8,3.3c-1.7-0.2-2.5-1.5-2.3-3.2c0.2-1.4,0.9-2.6,2.5-2.5
		C790.2,373.2,791.3,374.1,791.2,375.5z"/>
	<path class="st76" d="M126.8,435.2c-0.3,1.6-1.1,2.8-2.8,2.8c-1.7,0-2.8-0.9-2.9-2.6c-0.1-1.7,1.1-2.8,2.7-2.9
		C125.5,432.4,126.4,433.6,126.8,435.2z"/>
	<path class="st45" d="M138.8,568.6c-0.4,1.7-1.4,2.7-3.2,2.6c-1.7-0.2-2.7-1.3-2.5-3.1c0.2-1.5,1.2-2.3,2.8-2.3
		C137.7,565.8,138.6,566.9,138.8,568.6z"/>
	<path class="st53" d="M135,509c-0.4,1.6-1.3,2.8-3,2.7c-1.6-0.1-2.8-1.2-2.7-2.9c0.1-1.6,1.3-2.7,3-2.7
		C134,506.1,134.8,507.3,135,509z"/>
</g>
</svg>
